<?xml version="1.0" encoding="UTF-8"?><svg xmlns="http://www.w3.org/2000/svg" viewBox="0 0 54 54"><defs><style>.d{fill:#fff;}.e{fill:#49b349;}</style></defs><g id="a"/><g id="b"><g id="c"><g><circle class="e" cx="27" cy="27" r="27"/><path class="d" d="M37.97,16.93c-2.5-.02-5,0-7.5-.01-.02,3.34,.02,6.69-.02,10.03-2.32-3.31-4.52-6.71-6.9-9.98-2.51-.11-5.03-.03-7.54-.04,.02,6.71,0,13.42,0,20.12,2.51,.02,5.03,.01,7.54,0,.04-3.33-.05-6.65,.04-9.98,.82,1.15,1.58,2.35,2.42,3.49,1.41,2.18,3,4.25,4.35,6.47,2.53,.07,5.06,0,7.59,.04,.03-.32,.05-.63,.05-.95-.04-6.4,.03-12.8-.03-19.21Z"/></g></g></g></svg>