<?xml version="1.0" encoding="UTF-8"?><svg xmlns="http://www.w3.org/2000/svg" viewBox="0 0 54 54"><defs><style>.d{fill:#ffe300;}.e{fill:#381e1e;}</style></defs><g id="a"/><g id="b"><g id="c"><g><circle class="d" cx="27" cy="27" r="27"/><path class="e" d="M28,16.95c-6.63,0-12,4.25-12,9.48,0,3.05,1.83,5.77,4.66,7.5,.22,.22,.41,.59,.19,1.12,0,0-.89,2.3-2.6,3.83,0,0-.18,.27,.7,.08,0,0,3.22-.79,6.69-2.98,0,0,.14-.09,.56-.09,0,0,.29,0,.67-.02,.37,.03,.75,.04,1.13,.04,6.63,0,12-4.25,12-9.48s-5.37-9.48-12-9.48Z"/></g></g></g></svg>