<?xml version="1.0" encoding="UTF-8"?><svg xmlns="http://www.w3.org/2000/svg" viewBox="0 0 54 54"><defs><style>.d{fill:#ebebeb;}.e{fill:#fff;}.f{fill:#3e80ee;}.f,.g,.h,.i{fill-rule:evenodd;}.g{fill:#e44133;}.h{fill:#32a453;}.i{fill:#f6b800;}</style></defs><g id="a"/><g id="b"><g id="c"><g><g><circle class="e" cx="27" cy="27" r="26.51"/><g><path class="f" d="M38.78,27.27c0-.85-.08-1.67-.22-2.46h-11.32v4.65h6.47c-.28,1.5-1.13,2.78-2.4,3.63v3.02h3.89c2.27-2.09,3.58-5.17,3.58-8.84h0Z"/><path class="h" d="M27.24,39.02c3.25,0,5.97-1.08,7.96-2.91l-3.89-3.02c-1.08,.72-2.45,1.15-4.07,1.15-3.13,0-5.78-2.11-6.73-4.96h-4.02v3.11c1.98,3.93,6.04,6.62,10.74,6.62h0Z"/><path class="i" d="M20.51,29.28c-.24-.72-.38-1.49-.38-2.28s.14-1.56,.38-2.28v-3.11h-4.02c-.81,1.62-1.28,3.46-1.28,5.4s.46,3.78,1.28,5.4l4.02-3.11h0Z"/><path class="g" d="M27.24,19.76c1.77,0,3.35,.61,4.6,1.8l3.45-3.45c-2.08-1.94-4.8-3.13-8.04-3.13-4.7,0-8.77,2.69-10.74,6.62l4.02,3.11c.95-2.84,3.6-4.96,6.73-4.96h0Z"/></g></g><path class="d" d="M27,54C12.11,54,0,41.89,0,27S12.11,0,27,0s27,12.11,27,27-12.11,27-27,27ZM27,.98C12.65,.98,.98,12.65,.98,27s11.67,26.02,26.02,26.02,26.02-11.67,26.02-26.02S41.35,.98,27,.98Z"/></g></g></g></svg>