<?xml version="1.0" encoding="UTF-8"?><svg xmlns="http://www.w3.org/2000/svg" viewBox="0 0 54 54"><defs><style>.d{fill:#fff;}.e{fill:#1d1d1b;}</style></defs><g id="a"/><g id="b"><g id="c"><circle class="e" cx="27" cy="27" r="27"/><g><path class="d" d="M33.55,26.75c-.03-3.04,2.48-4.49,2.59-4.56-1.41-2.06-3.61-2.35-4.38-2.38-1.87-.19-3.65,1.1-4.6,1.1s-2.41-1.07-3.96-1.04c-2.04,.03-3.92,1.19-4.97,3.01-2.12,3.67-.54,9.12,1.52,12.09,1.01,1.46,2.21,3.1,3.78,3.04,1.52-.06,2.1-.98,3.94-.98s2.35,.98,3.96,.96c1.63-.03,2.67-1.49,3.67-2.95,1.16-1.69,1.64-3.33,1.66-3.42-.04-.01-3.19-1.22-3.22-4.86Z"/><path class="d" d="M30.53,17.83c.84-1.01,1.41-2.42,1.25-3.83-1.21,.05-2.67,.81-3.53,1.82-.78,.9-1.46,2.34-1.28,3.72,1.34,.1,2.72-.69,3.56-1.7Z"/></g></g></g></svg>