<?xml version="1.0" encoding="UTF-8"?><svg xmlns="http://www.w3.org/2000/svg" viewBox="0 0 160 176"><defs><style>.d{fill:#0049ff;}.e{fill:#fff;}.f{fill:#111;}</style></defs><g id="a"/><g id="b"><g id="c"><g><path class="f" d="M6.14,116.74c-.27,0-.51-.18-.58-.44-1.04-3.76-2.53-5.63-5.14-6.43-.25-.08-.42-.31-.42-.57,0-.26,.17-.5,.42-.57,2.6-.79,4.13-2.7,5.11-6.37,.07-.26,.3-.44,.57-.44,.27,0,.51,.17,.58,.43,.81,2.76,2,5.44,5.16,6.37,.25,.07,.43,.31,.43,.57s-.17,.5-.42,.58c-2.63,.82-4.16,2.75-5.14,6.44-.07,.26-.31,.44-.58,.45h0Zm-3.97-7.44c2.09,1.1,3.23,2.93,3.96,4.86,.7-1.87,1.84-3.74,3.96-4.87-2.06-1.07-3.21-2.91-3.97-4.85-.7,1.88-1.84,3.75-3.95,4.86Z"/><path class="d" d="M57.29,10.33c-4.86,1.52-7.09,5.32-8.45,10.47-1.41-5.13-3.6-8.95-8.46-10.44,4.86-1.48,7.05-5.27,8.42-10.36,1.46,4.95,3.55,8.89,8.49,10.33Z"/><path class="d" d="M160,132.39c-4.86,1.52-7.09,5.32-8.45,10.47-1.41-5.13-3.6-8.95-8.46-10.44,4.86-1.48,7.05-5.27,8.42-10.36,1.46,4.95,3.55,8.89,8.49,10.33Z"/><path class="f" d="M84.78,144.77c-17.97,0-33.72-12.28-38.33-31.05-3.51-14.3-2.95-29.29,1.79-47.18,.37-1.4,.63-2.73,.89-4.02,.48-2.43,.93-4.73,2.04-7.3,.12-.27,.22-.54,.33-.81,.29-.71,.58-1.45,1.01-2.14,1.38-2.24,5.4-4.11,8.33-3.07,2.6,.93,3.68,3.17,3.03,6.3-1.01,4.89-1.56,9.26-1.67,13.37-.03,1.1-.07,2.14-.12,3.15,1.07-3.69,2.46-7.44,4.21-11.31,2.73-6.05,5.9-12.34,10.49-17.31,1.72-1.86,4.38-2.86,6.78-2.53,1.8,.24,3.21,1.18,3.97,2.64,1.08,2.1,1.18,4.78,.22,6.52-3.46,6.32-7.42,13.85-10.49,21.84-.26,.68-.52,1.37-.76,2.06,5.84-10.54,15.4-18.13,22.1-22.94,.89-.64,4.13-2.31,7.19-1.61,1.81,.41,3.24,1.56,4.24,3.4,1.42,2.6,.57,5.77-1.07,7.33-1.59,1.51-3.22,2.93-4.81,4.31-3.53,3.07-6.86,5.96-9.85,9.88-2.2,2.88-3.57,5.36-4.48,8.15,.11-.08,.22-.15,.33-.23,.88-.6,1.64-1.11,2.29-1.61,9.23-7.12,24.78-5.8,29.32-5.22,1.98,.25,3.66,1.47,4.52,3.27,1.1,2.29,.54,5.08-1.34,6.79l-.39,.35c.65-.27,1.29-.44,1.92-.53,1.91-.27,4.09,.34,5.82,1.63,1.52,1.13,1.83,3.22,1.93,4.69,.75,11.08-5.93,27.89-12.18,34.96-8.19,9.26-18.02,15.11-29.22,17.39-2.71,.55-5.41,.82-8.05,.82ZM59.01,50.41c-2.02,0-4.36,1.25-5.22,2.65-.36,.58-.62,1.23-.89,1.91-.11,.28-.23,.56-.35,.84-1.05,2.42-1.49,4.64-1.95,6.99-.26,1.31-.52,2.66-.91,4.11-4.67,17.64-5.24,32.4-1.78,46.44,5.1,20.73,24.28,33.26,44.63,29.12,10.87-2.21,20.42-7.9,28.39-16.91,6.06-6.85,12.54-23.14,11.81-33.86-.13-1.84-.56-3.02-1.33-3.6-1.42-1.06-3.19-1.57-4.72-1.35-.94,.13-1.91,.51-2.96,1.15l-.63,.55c-.56,.65-.98,1.69-1.25,3.11-.11,.6-.22,1.21-.33,1.83-1.01,5.65-2.26,12.69-6.57,15.47-3.44,2.21-6.62,3.03-9.98,2.57-4.87-.66-7.52-4.12-7.48-9.72,.09-10.21,5-12.9,12.89-13.92,2.36-.31,4.49-.38,6.05-.44,.81-.03,1.45-.05,1.78-.1,1.93-.27,3.76-1.14,5.29-2.51l.45-.41c1.4-1.26,1.81-3.33,.99-5.03-.64-1.34-1.88-2.24-3.33-2.43-4.43-.56-19.47-1.85-28.24,4.92-.68,.53-1.46,1.05-2.36,1.66-.62,.42-1.29,.88-2.02,1.39-.26,.18-.59,.18-.85,0-.26-.17-.38-.49-.31-.79,.93-3.87,2.46-6.96,5.3-10.68,3.08-4.04,6.63-7.12,10.06-10.1,1.57-1.36,3.19-2.77,4.76-4.26,1.2-1.15,1.84-3.59,.78-5.53-.79-1.45-1.89-2.34-3.26-2.66-2.57-.59-5.37,.93-5.99,1.37-6.64,4.76-16.12,12.29-21.8,22.7-.16,.3-.31,.56-.45,.81-.73,1.3-1.22,2.17-2.29,5.44-.12,.36-.48,.58-.85,.5-.37-.07-.63-.4-.61-.78,.22-3.63,1.26-6.59,2.4-9.54,3.1-8.07,7.09-15.66,10.57-22.02,.71-1.29,.6-3.48-.24-5.11-.52-1.01-1.53-1.67-2.84-1.84-1.93-.25-4.08,.55-5.48,2.07-4.45,4.82-7.55,10.98-10.23,16.91-2.77,6.12-4.63,11.91-5.69,17.69-.07,.38-.4,.63-.79,.61-.38-.03-.68-.34-.69-.72-.09-2.39,0-4.56,.1-6.85,.04-1.04,.09-2.11,.12-3.24,.11-4.2,.67-8.66,1.7-13.63,.49-2.38-.2-3.92-2.07-4.59-.41-.15-.86-.21-1.32-.21Zm62.76,37.31c-1.06,.52-2.19,.87-3.36,1.03-.4,.06-1.04,.08-1.93,.11-1.53,.05-3.63,.13-5.91,.43-7.28,.94-11.51,3.28-11.59,12.45-.03,3.36,1.02,7.52,6.18,8.22,3,.41,5.85-.34,8.97-2.35,3.76-2.42,5-9.38,5.91-14.47,.11-.63,.22-1.24,.33-1.82,.12-.62,.44-2.34,1.4-3.61Z"/><path class="f" d="M117.34,77.74c-.07,1.55,.63,3.11,1.86,4.07s3.01,1.28,4.53,.78c.64-.21,.36-1.22-.28-1.01-1.2,.4-2.57,.21-3.58-.56s-1.54-2.03-1.48-3.27c.03-.67-1.02-.67-1.05,0h0Z"/><path class="f" d="M126.9,87.95c-.82,.65-1.23,1.65-1.41,2.66s-.28,2.2-.14,3.25c.15,1.15,.81,2.02,1.89,2.45,1.22,.49,2.56,.23,3.8-.04,.66-.14,.38-1.15-.28-1.01-1,.22-2.09,.47-3.09,.1-.91-.34-1.29-1.09-1.32-2.03-.06-1.54-.03-3.61,1.29-4.65,.22-.18,.18-.56,0-.74-.22-.22-.52-.17-.74,0h0Z"/><path class="f" d="M44.88,128.56l-2.01,40.29c-.04,.72,.58,1.33,1.4,1.4l67.88,5.74c.86,.07,1.62-.48,1.7-1.22l3.88-37.33c.07-.71-.51-1.35-1.33-1.46l-69.75-8.7c-.91-.11-1.73,.48-1.77,1.28Z"/><polygon class="e" points="117 144.51 44.46 137.11 44.46 136.11 117.1 143.52 117 144.51"/><path class="f" d="M136.09,49.34c0-2.92,2.93-5.62,5.89-5.12,.69,.12,1.55,.43,1.76,1.18,.16,.58-.18,1.12-.8,.89-1.74-.65-.46-2.56,.5-3.26,1.71-1.26,3.93-1.75,6.02-1.63,.96,.05,.96-1.44,0-1.5-2.59-.14-5.49,.6-7.45,2.38-.83,.76-1.5,1.84-1.43,3,.06,.98,.7,1.86,1.57,2.29s1.99,.36,2.65-.45c.74-.91,.57-2.27-.16-3.14-1.49-1.78-4.39-1.52-6.26-.58-2.21,1.12-3.77,3.43-3.78,5.93,0,.96,1.49,.96,1.5,0h0Z"/><path class="f" d="M31.94,57.92c-.69-1.53-1.99-2.69-3.46-3.46-1.37-.71-3.6-1.67-4.92-.4-1.12,1.07-.62,3.04,1.07,2.98,1.88-.06,2.22-2.32,1.42-3.65-1.04-1.74-3.2-2.88-5.07-3.46-.74-.23-1.05,.93-.32,1.15,1.51,.47,3.09,1.31,4.1,2.56,.41,.5,.79,1.32,.34,1.93-.27,.37-1.1,.4-.99-.22,.3-1.56,3.05-.23,3.82,.18,1.28,.68,2.36,1.65,2.96,2.99,.32,.7,1.35,.09,1.03-.6h0Z"/><path class="f" d="M99.46,23.23c1.07-3.66,3.25-6.89,6.22-9.29,.32-.26,.26-.79,0-1.06-.31-.31-.75-.25-1.06,0-3.16,2.55-5.47,6.06-6.6,9.95-.27,.93,1.17,1.32,1.44,.4h0Z"/></g></g></g></svg>