<?xml version="1.0" encoding="UTF-8"?><svg xmlns="http://www.w3.org/2000/svg" viewBox="0 0 184 122"><defs><style>.d{fill:#fff;}.e{fill:#111;}</style></defs><g id="a"/><g id="b"><g id="c"><g><path class="e" d="M109.86,112.39c-1.49,0-2.75-.31-3.57-.59-.67-.22-1.28-.58-1.82-1.06-6.09-5.41-17.43-20.44-17.91-21.08-.23-.3-.17-.74,.13-.97,.3-.23,.73-.17,.96,.13,.12,.16,11.74,15.56,17.73,20.88,.4,.36,.85,.62,1.34,.78,2.18,.73,7.74,1.68,12.22-5.22,.21-.32,.63-.41,.95-.2,.32,.21,.41,.64,.2,.96-3.34,5.14-7.25,6.36-10.23,6.36Z"/><path class="e" d="M79.14,120.23c-3.1,0-6.32-1.34-9.6-3.99-.3-.24-.34-.67-.11-.97,.24-.3,.67-.35,.96-.11,3.49,2.82,6.85,4.03,10.01,3.6,4.16-.57,6.56-3.88,6.59-3.92,.22-.31,.65-.38,.96-.16,.31,.22,.38,.65,.16,.96-.11,.16-2.75,3.82-7.5,4.48-.49,.07-.98,.1-1.48,.1Z"/><path class="e" d="M95.32,117.86c-1.8,0-3.42-.4-4.51-.76-.94-.31-1.79-.8-2.52-1.46-5.83-5.28-13.3-16.54-13.62-17.02-.21-.32-.13-.75,.19-.96,.31-.21,.74-.13,.95,.19,.08,.12,7.69,11.59,13.39,16.75,.58,.53,1.27,.92,2.02,1.17,8.11,2.66,11.4-2.63,12.64-6.02,.13-.36,.53-.54,.88-.41,.36,.13,.54,.53,.41,.89-2.24,6.13-6.37,7.62-9.84,7.62Z"/><path class="e" d="M105.26,54.96c-4.65-1.72-9.48-2.83-14.42-3.21-3.93-.3-7.85-.12-11.77,.19-3.27,.26-6.55,.63-9.83,.45s-6.6-.98-7.8-4.32c-1.01-2.82,.13-6.11,2.83-7.51,2.22-1.15,5.02-1.25,7.44-1.66,2.73-.46,5.45-1.01,8.09-1.88,2.24-.74,4.38-1.75,6.64-2.39,2.45-.7,4.95-1.23,7.46-1.66,10.63-1.81,21.67-1.56,32.11,1.26,.85,.23,1.22-1.11,.36-1.34-9.86-2.66-20.2-3.05-30.29-1.65-3.07,.43-6.13,1.01-9.13,1.81-2.05,.54-3.94,1.34-5.94,2.07-2.73,1-5.52,1.69-8.37,2.21-2.61,.47-5.42,.62-7.93,1.53-3.27,1.18-5.39,4.39-4.98,7.92,.32,2.73,2.05,5.02,4.57,6.07,3.13,1.31,6.93,1.04,10.24,.82,4.42-.29,8.82-.79,13.25-.7,5.86,.13,11.59,1.28,17.09,3.31,.83,.31,1.19-1.03,.36-1.34h0Z"/><path class="e" d="M49.9,94.01c-.29,0-.56-.19-.65-.48-.12-.36,.08-.75,.44-.87,5.56-1.82,9.05-4.26,10.36-7.24,1.05-2.39,.35-4.48,0-5.27-1-2.26-3.42-3.75-6.46-3.98-.38-.03-.66-.36-.63-.74,.03-.38,.36-.66,.74-.64,3.56,.28,6.4,2.07,7.61,4.8,.42,.96,1.27,3.5,0,6.4-1.48,3.36-5.25,6.05-11.19,8-.07,.02-.14,.03-.21,.03Z"/><path class="e" d="M59.18,106.41c-.29,0-.56-.19-.65-.48-.12-.36,.08-.75,.44-.87,5.5-1.8,7.76-4.7,8.69-6.81,1.01-2.29,.8-4.37,.32-5.46-1.27-2.86-4.68-4.41-8.7-3.94-.37,.03-.72-.23-.76-.61-.04-.38,.23-.72,.6-.77,4.63-.54,8.6,1.33,10.11,4.75,.63,1.41,.87,3.89-.32,6.59-1.04,2.37-3.54,5.61-9.52,7.56-.07,.02-.14,.03-.21,.03Z"/><path class="e" d="M64.81,117.01c-3.31,0-6.21-1.5-7.39-4.17-.83-1.88-.68-4.12,.38-6.2-4.51,.49-8.5-1.35-10.01-4.76-1.05-2.38-.76-5.21,.76-7.78-4.02,.01-7.32-1.78-8.68-4.85-.9-2.04-.82-4.45,.22-6.74-3.08-.51-5.51-2.21-6.6-4.68-1.01-2.27-.81-4.91,.56-7.43,1.33-2.46,3.62-4.51,6.46-5.79,5.91-2.67,12.39-1.08,14.43,3.55,.97,2.19,.99,4.29,.06,6.25-1.64,3.44-6.14,6.17-13.38,8.13-1.13,2.12-1.31,4.29-.48,6.15,1.27,2.86,4.68,4.41,8.7,3.94,.28-.03,.54,.11,.68,.35,.14,.24,.11,.54-.06,.76-1.89,2.46-2.42,5.29-1.41,7.57,1.41,3.18,5.52,4.71,9.99,3.72,.28-.06,.57,.06,.72,.3,.16,.24,.15,.56-.02,.79-1.5,2.05-1.89,4.29-1.07,6.15,1.45,3.28,6.19,4.34,10.57,2.36,2.15-.97,3.89-2.52,4.88-4.36,.96-1.78,1.11-3.61,.43-5.17-1.09-2.47-4.18-3.77-7.68-3.22-.37,.05-.73-.2-.78-.58-.06-.38,.2-.73,.57-.79,4.11-.64,7.79,.98,9.14,4.03,.87,1.96,.7,4.23-.48,6.4-1.14,2.1-3.1,3.86-5.53,4.96-1.66,.75-3.38,1.11-4.99,1.11Zm-18.45-52.31c-1.7,0-3.53,.38-5.3,1.18-2.56,1.16-4.62,3-5.81,5.19-1.15,2.13-1.33,4.33-.51,6.2,.99,2.23,3.36,3.71,6.35,3.98,6.93-1.85,11.19-4.35,12.66-7.43,.75-1.57,.72-3.28-.07-5.08-1.15-2.59-4-4.03-7.32-4.03Z"/><path class="e" d="M121.85,105.84c-3.34,0-8.42-4.4-15.1-13.08-4.96-6.43-9.05-12.99-9.09-13.05-.2-.32-.11-.75,.22-.95,.32-.2,.74-.11,.95,.22,4.43,7.12,17.16,25.48,23.02,25.48,.03,0,.06,0,.09,0,7.99-.27,9.51-4.38,9.57-4.55h0s1.14-5.62-3.75-12.7c-5.08-7.36-23.04-30.91-23.22-31.15-.23-.3-.18-.74,.13-.97,.3-.23,.73-.18,.96,.13,.18,.24,18.16,23.81,23.26,31.2,5.26,7.63,3.99,13.61,3.94,13.87-.09,.28-1.83,5.26-10.84,5.56-.04,0-.08,0-.12,0Z"/><path class="e" d="M69.22,41.47c.98,1.29,.27,3.01-.96,3.83-1.52,1.01-3.41,.94-5.15,.88-.59-.02-.59,.9,0,.92,2.03,.07,4.24,.08,5.93-1.24,1.42-1.11,2.16-3.3,.97-4.86-.15-.2-.39-.3-.63-.17-.19,.11-.31,.43-.16,.63h0Z"/><path class="e" d="M33.75,68.48L75.74,27.19c.94-.92,.81-2.47-.26-3.23L44.2,.38c-.93-.65-2.21-.43-2.88,.5L.39,46.97c-.82,1.15-.29,2.78,1.05,3.22l30.21,18.79c.73,.24,1.54,.05,2.09-.49Z"/><path class="e" d="M125.18,30.41l21.34,65.97c.2,.61,.82,.98,1.45,.84l35.05-7.43c.71-.15,1.14-.87,.95-1.58L163.05,13.11c-.21-.75-1.03-1.13-1.73-.8l-35.48,16.57c-.57,.27-.86,.93-.66,1.54Z"/><polygon class="d" points="23.04 63.62 22.22 63.11 64.57 15.74 65.34 16.32 23.04 63.62"/><polygon class="d" points="159.26 94.8 136.26 24.01 137.16 23.59 160.22 94.63 159.26 94.8"/><path class="e" d="M29.72,102.62c.89,4.11,3.11,7.88,6.25,10.63,.66,.58,1.64-.39,.97-.98-2.98-2.62-5.05-6.13-5.9-10.02-.19-.87-1.51-.5-1.32,.37h0Z"/><path class="e" d="M20.27,100c.12,2.27,1.14,4.52,2,6.6,.67,1.62,1.44,3.2,2.42,4.66,2.44,3.65,5.95,6.35,9.57,8.73,.74,.49,1.43-.71,.69-1.2-3.41-2.25-6.78-4.78-9.08-8.23-.9-1.35-1.63-2.8-2.26-4.29-.82-1.94-1.86-4.15-1.97-6.27-.05-.89-1.42-.89-1.37,0h0Z"/><path class="e" d="M141.77,106.18c-1,3.52-4.05,6.2-7.61,6.8-.37,.06-.57,.52-.48,.85,.11,.39,.48,.55,.84,.48,4.02-.68,7.45-3.83,8.57-7.77,.24-.86-1.08-1.23-1.32-.37h0Z"/><path class="e" d="M148.93,106.85c-2.09,6.94-8.04,12.36-15.07,13.8-.86,.18-.5,1.51,.36,1.34,7.5-1.54,13.81-7.38,16.03-14.76,.26-.85-1.07-1.22-1.32-.37h0Z"/><path class="e" d="M89.88,33.76c-.07,0-.14-.01-.21-.03-6.98-2.29-14.81-4.74-14.89-4.77-.36-.11-.56-.5-.45-.87s.49-.57,.86-.46c.08,.03,7.93,2.48,14.91,4.78,.36,.12,.56,.51,.44,.87-.09,.29-.36,.48-.65,.48Z"/><path class="e" d="M131.17,102.83c-.32,0-.61-.23-.67-.56-.07-.38,.17-.74,.54-.81,.08-.02,8.28-1.69,13.92-8.66,.24-.3,.67-.34,.97-.1,.29,.24,.34,.68,.1,.97-5.97,7.37-14.37,9.08-14.72,9.14-.04,0-.09,.01-.13,.01Z"/><path class="e" d="M37.05,68.16c-.21,0-.39-.14-.44-.35l-1.44-6.05c-.06-.25,.09-.5,.34-.56,.25-.06,.49,.09,.55,.34l1.44,6.05c.06,.25-.09,.5-.34,.56-.04,0-.07,.01-.11,.01Z"/></g></g></g></svg>