<?xml version="1.0" encoding="UTF-8"?><svg xmlns="http://www.w3.org/2000/svg" viewBox="0 0 186 142"><defs><style>.d{fill:#0049ff;}.e{fill:#111;}</style></defs><g id="a"/><g id="b"><g id="c"><g><path class="e" d="M139.07,113.73H14.35c-.33,0-.6-.27-.6-.6v-20.56c0-.33,.27-.6,.6-.6h124.72c.33,0,.6,.27,.6,.6v20.56c0,.33-.27,.6-.6,.6Zm-124.12-1.19h123.53v-19.37H14.95v19.37Z"/><rect class="d" x="98.95" y="80.25" width="69.36" height="2.57"/><rect class="d" x="78.65" y="72.02" width="10.29" height="20.56"/><ellipse class="e" cx="125.58" cy="102.86" rx="6.16" ry="6.14"/><path class="e" d="M111.16,108.81H27.35c-.28,0-.5-.22-.5-.5v-10.91c0-.27,.22-.5,.5-.5H111.16c.28,0,.5,.22,.5,.5v10.91c0,.27-.22,.5-.5,.5Zm-83.32-.99H110.67v-9.91H27.84v9.91Z"/><path class="e" d="M184.08,93.17H59.36c-.33,0-.6-.27-.6-.6v-20.56c0-.33,.27-.6,.6-.6h124.72c.33,0,.6,.27,.6,.6v20.56c0,.33-.27,.6-.6,.6Zm-124.12-1.19h123.53v-19.37H59.96v19.37Z"/><rect class="e" x="126.68" y="21.08" width="5.63" height="22.76" transform="translate(259 64.92) rotate(-180)"/><rect class="e" x="137.05" y="21.08" width="5.63" height="22.76" transform="translate(279.73 64.92) rotate(-180)"/><rect class="e" x="45.48" y="21.08" width="12.63" height="22.76" transform="translate(103.59 64.92) rotate(-180)"/><path class="e" d="M160.16,44.44H28.3c-.33,0-.6-.27-.6-.6V21.08c0-.33,.27-.6,.6-.6H160.16c.33,0,.6,.27,.6,.6v22.76c0,.33-.27,.6-.6,.6Zm-131.27-1.19H159.56V21.67H28.89v21.57Z"/><g><path class="e" d="M139.96,142H28.3c-.33,0-.6-.27-.6-.6v-3.8c0-.33,.27-.6,.6-.6h111.19c5.36,0,9.71-4.34,9.71-9.68s-4.36-9.68-9.71-9.68H28.3c-.33,0-.6-.27-.6-.6v-3.8c0-.33,.27-.6,.6-.6h111.67c7.85,0,14.23,6.58,14.23,14.67s-6.38,14.67-14.23,14.67Zm-111.07-1.19h111.07c7.19,0,13.04-6.05,13.04-13.48s-5.85-13.48-13.04-13.48H28.89v2.6h110.59c6.01,0,10.91,4.88,10.91,10.87s-4.89,10.87-10.91,10.87H28.89v2.6Z"/><path class="e" d="M31.43,138.2c-.33,0-.6-.27-.6-.6v-20.56c0-.33,.27-.6,.6-.6s.6,.27,.6,.6v20.56c0,.33-.27,.6-.6,.6Z"/><path class="e" d="M40.1,121.95h-8.16c-.33,0-.6-.27-.6-.6s.27-.6,.6-.6h8.16c.33,0,.6,.27,.6,.6s-.27,.6-.6,.6Z"/><path class="e" d="M36.96,131.79h-5.03c-.33,0-.6-.27-.6-.6s.27-.6,.6-.6h5.03c.33,0,.6,.27,.6,.6s-.27,.6-.6,.6Z"/><path class="e" d="M47.02,126.87h-15.08c-.33,0-.6-.27-.6-.6s.27-.6,.6-.6h15.08c.33,0,.6,.27,.6,.6s-.27,.6-.6,.6Z"/></g><path class="e" d="M150.07,72.61H56.16c-7.85,0-14.23-6.58-14.23-14.67s6.38-14.67,14.23-14.67h93.92c.33,0,.6,.27,.6,.6v3.8c0,.33-.27,.6-.6,.6H56.64c-5.36,0-9.71,4.34-9.71,9.68s4.36,9.68,9.71,9.68h93.43c.33,0,.6,.27,.6,.6v3.8c0,.33-.27,.6-.6,.6ZM56.16,44.46c-7.19,0-13.04,6.05-13.04,13.48s5.85,13.48,13.04,13.48h93.32v-2.6H56.64c-6.01,0-10.91-4.88-10.91-10.87s4.89-10.87,10.91-10.87h92.84v-2.6H56.16Z"/><path class="e" d="M146.64,68.45c-.33,0-.6-.27-.6-.6v-19.62c0-.33,.27-.6,.6-.6s.6,.27,.6,.6v19.62c0,.33-.27,.6-.6,.6Z"/><path class="e" d="M146.64,64.94h-11c-.33,0-.6-.27-.6-.6s.27-.6,.6-.6h11c.33,0,.6,.27,.6,.6s-.27,.6-.6,.6Z"/><path class="e" d="M146.64,55.1h-6.77c-.33,0-.6-.27-.6-.6s.27-.6,.6-.6h6.77c.33,0,.6,.27,.6,.6s-.27,.6-.6,.6Z"/><path class="e" d="M146.64,60.02h-15.08c-.33,0-.6-.27-.6-.6s.27-.6,.6-.6h15.08c.33,0,.6,.27,.6,.6s-.27,.6-.6,.6Z"/><g><path class="e" d="M182.35,19.52c1.21-.52,2.33-.55,3.43-.04,.28,.13,.29,.53,.02,.68-1.38,.77-1.74,.78-3.45,.06-.31-.13-.31-.57,0-.7Z"/><path class="e" d="M175.6,19.56c1.26-.57,2.4-.58,3.56-.06,.27,.12,.32,.5,.07,.67-1.15,.8-2.32,.63-3.62,.09-.3-.13-.31-.56-.01-.7Z"/><path class="e" d="M180.34,18.21c-.52-1.21-.55-2.32-.04-3.42,.13-.28,.53-.29,.68-.02,.77,1.38,.78,1.74,.06,3.44-.13,.31-.57,.31-.71,0Z"/><path class="e" d="M180.38,24.94c-.57-1.26-.58-2.39-.06-3.55,.12-.27,.5-.32,.67-.07,.8,1.14,.63,2.31,.09,3.61-.13,.3-.56,.31-.7,.01Z"/></g><g><path class="e" d="M38.02,3.14c.77-.33,1.48-.35,2.18-.02,.18,.08,.18,.34,.01,.43-.88,.49-1.11,.49-2.19,.04-.2-.08-.2-.36,0-.45Z"/><path class="e" d="M33.73,3.17c.8-.36,1.52-.37,2.26-.04,.17,.08,.2,.32,.05,.43-.73,.51-1.47,.4-2.3,.06-.19-.08-.2-.36,0-.44Z"/><path class="e" d="M36.74,2.31c-.33-.77-.35-1.47-.02-2.17,.08-.18,.34-.18,.43-.01,.49,.87,.49,1.1,.04,2.18-.08,.2-.36,.2-.45,0Z"/><path class="e" d="M36.77,6.58c-.36-.8-.37-1.52-.04-2.25,.08-.17,.32-.2,.43-.05,.51,.73,.4,1.47,.06,2.29-.08,.19-.36,.2-.44,0Z"/></g><g><path class="e" d="M5.77,79.97c1-.43,1.93-.45,2.84-.03,.23,.11,.24,.44,.01,.56-1.14,.63-1.44,.64-2.85,.05-.26-.11-.26-.47,0-.58Z"/><path class="e" d="M.18,80c1.04-.47,1.98-.48,2.94-.05,.23,.1,.26,.41,.06,.56-.95,.66-1.92,.52-2.99,.07-.25-.1-.26-.47-.01-.58Z"/><path class="e" d="M4.11,78.88c-.43-1-.46-1.92-.03-2.83,.11-.23,.44-.24,.56-.01,.64,1.14,.64,1.44,.05,2.85-.11,.25-.48,.25-.58,0Z"/><path class="e" d="M4.14,84.45c-.48-1.04-.48-1.98-.05-2.93,.1-.23,.41-.26,.56-.06,.66,.95,.52,1.91,.07,2.98-.1,.25-.47,.26-.58,.01Z"/></g><g><path class="e" d="M179.6,120.19c.77-.33,1.48-.35,2.18-.02,.18,.08,.18,.34,.01,.43-.88,.49-1.11,.49-2.19,.04-.2-.08-.2-.36,0-.45Z"/><path class="e" d="M175.32,120.22c.8-.36,1.52-.37,2.26-.04,.17,.08,.2,.32,.05,.43-.73,.51-1.47,.4-2.3,.06-.19-.08-.2-.36,0-.44Z"/><path class="e" d="M178.33,119.36c-.33-.77-.35-1.47-.02-2.17,.08-.18,.34-.18,.43-.01,.49,.87,.49,1.1,.04,2.18-.08,.2-.36,.2-.45,0Z"/><path class="e" d="M178.35,123.64c-.36-.8-.37-1.52-.04-2.25,.08-.17,.32-.2,.43-.05,.51,.73,.4,1.47,.06,2.29-.08,.19-.36,.2-.44,0Z"/></g></g></g></g></svg>