<?xml version="1.0" encoding="UTF-8"?><svg xmlns="http://www.w3.org/2000/svg" viewBox="0 0 184 152"><defs><style>.d{fill:none;}.e{fill:#0049ff;}.f{fill:#111;}</style></defs><g id="a"/><g id="b"><g id="c"><g><g><path class="f" d="M37.15,65.37c-.29,0-.57-.12-.77-.36-.35-.42-.29-1.04,.14-1.39L82.27,26.11c.36-.29,.87-.3,1.24-.02l23.61,18.34L152.25,10.43c.44-.33,1.06-.24,1.39,.19,.33,.43,.24,1.05-.19,1.38l-45.74,34.47c-.36,.27-.85,.27-1.21,0l-23.58-18.33-45.13,37.01c-.18,.15-.41,.22-.63,.22Z"/><path class="f" d="M152.96,20.74s-.04,0-.07,0c-.55-.04-.96-.51-.92-1.05l.56-8.3-8.34-.11c-.55,0-.98-.45-.98-1,0-.55,.45-.97,1-.98l9.38,.12c.27,0,.53,.12,.72,.32,.18,.2,.28,.46,.26,.74l-.63,9.34c-.04,.52-.47,.92-.99,.92Z"/></g><path class="f" d="M143.41,152h-24.21c-.41,0-.74-.33-.74-.74V53.33c0-.41,.33-.74,.74-.74h24.21c.41,0,.74,.33,.74,.74v97.93c0,.41-.33,.74-.74,.74Zm-23.46-1.48h22.72V54.07h-22.72v96.45Z"/><path class="f" d="M119.2,152h-24.21c-.41,0-.74-.33-.74-.74V86.86c0-.41,.33-.74,.74-.74h24.21c.41,0,.74,.33,.74,.74v64.4c0,.41-.33,.74-.74,.74Zm-23.46-1.48h22.72v-62.91h-22.72v62.91Z"/><path class="f" d="M95,152h-24.21c-.41,0-.74-.33-.74-.74V70.47c0-.41,.33-.74,.74-.74h24.21c.41,0,.74,.33,.74,.74v80.79c0,.41-.33,.74-.74,.74Zm-23.46-1.48h22.72V71.21h-22.72v79.31Z"/><path class="f" d="M70.79,152h-24.21c-.41,0-.74-.33-.74-.74v-53.04c0-.41,.33-.74,.74-.74h24.21c.41,0,.74,.33,.74,.74v53.04c0,.41-.33,.74-.74,.74Zm-23.46-1.48h22.72v-51.56h-22.72v51.56Z"/><path class="f" d="M152.84,152H37.15c-.41,0-.74-.33-.74-.74s.33-.74,.74-.74h115.69c.41,0,.74,.33,.74,.74s-.33,.74-.74,.74Z"/><g><polygon class="d" points="70.2 134.04 52.62 150.77 55.13 150.77 70.2 136.44 70.2 134.04"/><polygon class="d" points="70.2 129.29 47.63 150.77 50.18 150.77 70.2 131.71 70.2 129.29"/><polygon class="d" points="70.2 124.52 46.98 146.59 46.98 149.06 70.2 126.96 70.2 124.52"/><polygon class="d" points="70.2 110.22 46.98 132.11 46.98 134.53 70.2 112.64 70.2 110.22"/><polygon class="d" points="62.35 98.71 46.98 113.2 46.98 115.62 64.91 98.71 62.35 98.71"/><polygon class="d" points="70.2 114.95 46.98 136.84 46.98 139.26 70.2 117.37 70.2 114.95"/><polygon class="d" points="47.31 98.71 46.98 99.02 46.98 101.44 49.87 98.71 47.31 98.71"/><polygon class="d" points="70.2 119.68 46.98 141.57 46.98 144.27 70.2 122.2 70.2 119.68"/><polygon class="d" points="57.33 98.71 46.98 108.47 46.98 110.89 59.9 98.71 57.33 98.71"/><polygon class="d" points="52.32 98.71 46.98 103.75 46.98 106.16 54.88 98.71 52.32 98.71"/><polygon class="d" points="70.2 138.76 57.57 150.77 59.85 150.77 70.2 141.01 70.2 138.76"/><polygon class="d" points="70.2 105.5 46.98 127.39 46.98 129.8 70.2 107.91 70.2 105.5"/><polygon class="d" points="70.2 100.77 46.98 122.66 46.98 125.07 70.2 103.18 70.2 100.77"/><polygon class="d" points="67.36 98.71 46.98 117.93 46.98 120.35 69.93 98.71 67.36 98.71"/><polygon class="d" points="67.31 150.77 69.88 150.77 70.2 150.46 70.2 148.04 67.31 150.77"/><polygon class="d" points="70.2 143.32 62.3 150.77 64.86 150.77 70.2 145.73 70.2 143.32"/><polygon class="f" points="49.87 98.71 46.98 101.44 46.98 103.75 52.32 98.71 49.87 98.71"/><polygon class="f" points="54.88 98.71 46.98 106.16 46.98 108.47 57.33 98.71 54.88 98.71"/><polygon class="f" points="59.9 98.71 46.98 110.89 46.98 113.2 62.35 98.71 59.9 98.71"/><polygon class="f" points="64.91 98.71 46.98 115.62 46.98 117.93 67.36 98.71 64.91 98.71"/><polygon class="f" points="70.2 98.71 69.93 98.71 46.98 120.35 46.98 122.66 70.2 100.77 70.2 98.71"/><polygon class="f" points="70.2 103.18 46.98 125.07 46.98 127.39 70.2 105.5 70.2 103.18"/><polygon class="f" points="70.2 107.91 46.98 129.8 46.98 132.11 70.2 110.22 70.2 107.91"/><polygon class="f" points="70.2 112.64 46.98 134.53 46.98 136.84 70.2 114.95 70.2 112.64"/><polygon class="f" points="70.2 117.37 46.98 139.26 46.98 141.57 70.2 119.68 70.2 117.37"/><polygon class="f" points="70.2 122.2 46.98 144.27 46.98 146.59 70.2 124.52 70.2 122.2"/><polygon class="f" points="70.2 126.96 46.98 149.06 46.98 150.77 47.63 150.77 70.2 129.29 70.2 126.96"/><polygon class="f" points="70.2 131.71 50.18 150.77 52.62 150.77 70.2 134.04 70.2 131.71"/><polygon class="f" points="70.2 136.44 55.13 150.77 57.57 150.77 70.2 138.76 70.2 136.44"/><polygon class="f" points="70.2 141.01 59.85 150.77 62.3 150.77 70.2 143.32 70.2 141.01"/><polygon class="f" points="70.2 145.73 64.86 150.77 67.31 150.77 70.2 148.04 70.2 145.73"/></g><path class="f" d="M168.82,63.18c-.27,0-.5-.18-.57-.43-1.3-4.7-3.25-7.13-6.54-8.14-.25-.08-.42-.31-.42-.57,0-.26,.17-.49,.42-.57,3.31-1.01,5.26-3.42,6.51-8.06,.07-.26,.3-.44,.57-.44,.26-.03,.5,.17,.58,.42,1.03,3.49,2.54,6.88,6.56,8.06,.25,.07,.42,.3,.43,.56s-.17,.49-.42,.57c-3.35,1.05-5.3,3.48-6.53,8.15-.07,.26-.3,.44-.57,.44h0Zm-5.31-9.14c2.9,1.4,4.38,3.91,5.3,6.53,.88-2.52,2.36-5.09,5.3-6.53-2.85-1.36-4.35-3.88-5.31-6.51-.89,2.52-2.36,5.1-5.3,6.51Z"/><path class="f" d="M5.68,121.79c-.27,0-.5-.18-.57-.43-.95-3.43-2.31-5.13-4.69-5.86-.25-.08-.42-.31-.42-.57,0-.26,.17-.49,.42-.57,2.37-.72,3.76-2.46,4.66-5.8,.07-.26,.3-.44,.57-.44,.26-.03,.5,.17,.58,.42,.74,2.52,1.83,4.96,4.71,5.8,.25,.07,.42,.3,.43,.56,0,.26-.17,.49-.42,.57-2.39,.75-3.8,2.5-4.69,5.87-.07,.26-.3,.44-.57,.44h0Zm-3.55-6.86c1.85,.99,2.87,2.61,3.54,4.33,.64-1.66,1.67-3.31,3.54-4.33-1.82-.97-2.85-2.6-3.55-4.32-.64,1.67-1.67,3.32-3.54,4.33Z"/><path class="e" d="M38.96,10.23c-4.82,1.51-7.03,5.27-8.38,10.36-1.4-5.08-3.57-8.86-8.39-10.34,4.82-1.46,7-5.21,8.35-10.25,1.45,4.9,3.52,8.79,8.42,10.23Z"/><path class="e" d="M184,143.15c-2.91,.91-4.24,3.18-5.06,6.25-.85-3.07-2.15-5.35-5.07-6.24,2.91-.88,4.22-3.15,5.04-6.18,.87,2.95,2.12,5.31,5.08,6.17Z"/><g><polygon class="d" points="119.2 139.66 106.9 151.26 109.46 151.26 119.2 142.08 119.2 139.66"/><polygon class="d" points="110.02 86.86 95 101.02 95 103.44 112.58 86.86 110.02 86.86"/><polygon class="d" points="119.2 135.11 102.22 151.26 104.45 151.26 119.2 137.35 119.2 135.11"/><polygon class="d" points="99.99 86.86 95 91.57 95 93.98 102.55 86.86 99.99 86.86"/><polygon class="d" points="119.2 144.39 111.92 151.26 114.48 151.26 119.2 146.8 119.2 144.39"/><polygon class="d" points="119.2 130.39 97.28 151.26 99.78 151.26 119.2 132.79 119.2 130.39"/><polygon class="d" points="105 86.86 95 96.3 95 98.71 107.57 86.86 105 86.86"/><polygon class="d" points="95 86.86 95 89.26 97.54 86.86 95 86.86"/><polygon class="d" points="119.2 97.11 95 119.93 95 122.35 119.2 99.53 119.2 97.11"/><polygon class="d" points="119.2 101.84 95 124.66 95 127.08 119.2 104.26 119.2 101.84"/><polygon class="d" points="119.2 92.38 95 115.21 95 117.62 119.2 94.8 119.2 92.38"/><polygon class="d" points="119.2 116.02 95 138.84 95 141.56 119.2 118.56 119.2 116.02"/><polygon class="d" points="119.2 111.29 95 134.12 95 136.53 119.2 113.71 119.2 111.29"/><polygon class="d" points="119.2 106.57 95 129.39 95 131.8 119.2 108.98 119.2 106.57"/><polygon class="d" points="119.2 120.87 95 143.88 95 146.36 119.2 123.32 119.2 120.87"/><polygon class="d" points="119.2 87.66 95 110.48 95 112.89 119.2 90.07 119.2 87.66"/><polygon class="d" points="115.03 86.86 95 105.75 95 108.17 117.59 86.86 115.03 86.86"/><polygon class="d" points="119.2 151.26 119.2 149.11 116.93 151.26 119.2 151.26"/><polygon class="d" points="119.2 125.64 95 148.68 95 151.11 119.2 128.07 119.2 125.64"/><polygon class="f" points="97.54 86.86 95 89.26 95 91.57 99.99 86.86 97.54 86.86"/><polygon class="f" points="102.55 86.86 95 93.98 95 96.3 105 86.86 102.55 86.86"/><polygon class="f" points="107.57 86.86 95 98.71 95 101.02 110.02 86.86 107.57 86.86"/><polygon class="f" points="112.58 86.86 95 103.44 95 105.75 115.03 86.86 112.58 86.86"/><polygon class="f" points="119.2 86.86 117.59 86.86 95 108.17 95 110.48 119.2 87.66 119.2 86.86"/><polygon class="f" points="119.2 90.07 95 112.89 95 115.21 119.2 92.38 119.2 90.07"/><polygon class="f" points="119.2 94.8 95 117.62 95 119.93 119.2 97.11 119.2 94.8"/><polygon class="f" points="119.2 99.53 95 122.35 95 124.66 119.2 101.84 119.2 99.53"/><polygon class="f" points="119.2 104.26 95 127.08 95 129.39 119.2 106.57 119.2 104.26"/><polygon class="f" points="119.2 108.98 95 131.8 95 134.12 119.2 111.29 119.2 108.98"/><polygon class="f" points="119.2 113.71 95 136.53 95 138.84 119.2 116.02 119.2 113.71"/><polygon class="f" points="119.2 118.56 95 141.56 95 143.88 119.2 120.87 119.2 118.56"/><polygon class="f" points="119.2 123.32 95 146.36 95 148.68 119.2 125.64 119.2 123.32"/><polygon class="f" points="119.2 128.07 95 151.11 95 151.26 97.28 151.26 119.2 130.39 119.2 128.07"/><polygon class="f" points="119.2 132.79 99.78 151.26 102.22 151.26 119.2 135.11 119.2 132.79"/><polygon class="f" points="119.2 137.35 104.45 151.26 106.9 151.26 119.2 139.66 119.2 137.35"/><polygon class="f" points="119.2 142.08 109.46 151.26 111.92 151.26 119.2 144.39 119.2 142.08"/><polygon class="f" points="119.2 149.11 119.2 146.8 114.48 151.26 116.93 151.26 119.2 149.11"/></g></g></g></g></svg>