<?xml version="1.0" encoding="UTF-8"?><svg xmlns="http://www.w3.org/2000/svg" viewBox="0 0 160 150"><defs><style>.d{fill:#0049ff;}.e{fill:#fff;}.f{fill:#111;}</style></defs><g id="a"/><g id="b"><g id="c"><g><path class="f" d="M94.42,34.37c.39-2.62,1.85-5.26,3.46-7.34,2.31-3,5.88-4.4,9.67-4.17,8.69,.54,10.54,10.63,10.18,17.53-.2,3.86-1.09,7.7-2.95,11.12-1.62,2.98-3.58,5.79-4.96,8.89-1.3,2.92-1.53,5.87,.43,8.57,1,1.38,2.26,2.58,3.65,3.57,1.47,1.05,3.14,1.75,4.58,2.83,5.53,4.17,10.08,10.9,8.36,17.98-.45,1.84-1.27,3.44-2.31,5.01-.56,.84-.12,1.66,.12,2.58,.92,3.48,1.09,7.1-.2,10.53-.58,1.54-1.54,2.87-2.8,3.94-.77,.65-1.65,1.14-2.43,1.77-1.2,.97-.86,1.9-.84,3.2,.06,4.3-1.05,9.32-3.9,12.68-.81,.95-1.77,1.76-2.9,2.32-.83,.42-1.74,.57-1.97,1.59s.22,2.19,.27,3.21c.08,1.71-.35,3.52-1.37,4.93-1.8,2.5-5.29,2.79-8.12,3.08-4.14,.41-8.37,.45-12.42-.57-3.7-.93-7.12-2.77-9.63-5.65-1.18-1.35-2.14-2.92-2.73-4.61-.29-.83-.5-1.7-.59-2.58-.08-.77,.03-1.58-.17-2.33-.37-1.4-1.72-1.61-2.98-1.78s-2.62-.35-3.94-.52c-3.05-.41-6.1-.84-9.12-1.43-5.27-1.04-10.26-3.39-13.39-7.86-2.84-4.07-3.68-9.08-3.57-13.93s1.22-10.12,2.64-15,2.85-10.15,6.09-14.2c3.48-4.35,8.37-7.55,13.47-9.77,2.8-1.22,5.67-2.21,8.41-3.58,8.92-4.49,16.2-11.65,19.74-20.98,1.13-2.98,1.83-6.07,2.25-9.21,.13-.97-1.42-.96-1.55,0-.86,6.4-3.2,12.56-7.2,17.71-3.05,3.92-6.95,7.15-11.25,9.67-2.91,1.71-5.99,3.05-9.14,4.26-4.79,1.84-9.35,4.44-13.11,7.93-2.35,2.18-4.39,4.76-5.73,7.67-1,2.17-1.71,4.5-2.44,6.76-1.6,4.92-2.92,9.96-3.48,15.1-.55,5.02-.34,10.29,1.69,15,2.18,5.06,6.41,8.66,11.54,10.68,2.52,1,5.31,1.39,7.98,1.82,3.03,.49,6.08,.88,9.12,1.28,.51,.07,1.09,.08,1.58,.22,.94,.28,.92,.67,.95,1.42,.02,.48,.04,.96,.1,1.44,.21,1.67,.75,3.29,1.54,4.78,1.6,3.01,4.21,5.51,7.22,7.14,3.56,1.94,7.66,2.75,11.7,2.91,3.59,.13,7.52-.04,11.01-.96,2.81-.74,4.91-2.44,5.89-5.18,.56-1.57,.65-3.21,.43-4.85-.05-.39-.31-1.11-.2-1.5,.12-.43,.44-.41,.89-.61,4.75-2.15,6.83-7.62,7.59-12.37,.26-1.67,.48-3.43,.29-5.12-.08-.7-.05-.74,.57-1.2,.88-.65,1.8-1.21,2.61-1.94,2.65-2.41,3.77-6.02,3.89-9.5,.06-1.64-.13-3.29-.48-4.89-.13-.58-.28-1.16-.44-1.74-.06-.22-.12-.43-.18-.65-.02-.09-.08-.2-.07-.3,.02-.38,.02,.11,.1-.02,.92-1.59,1.82-3.04,2.32-4.82s.68-3.54,.56-5.32c-.24-3.35-1.66-6.27-3.65-8.96-2-2.7-4.45-5.31-7.4-7.03-3.12-1.81-7.44-4.33-7.42-8.44,0-1.74,.84-3.43,1.63-4.95,.83-1.59,1.76-3.13,2.68-4.67,1.88-3.18,3.39-6.26,4.12-9.91,.81-4.07,.84-8.29,.02-12.36-.65-3.21-2.01-6.57-4.54-8.79-2.66-2.34-6.4-2.95-9.84-2.37s-6.1,2.36-8.1,5.14c-1.51,2.1-2.93,4.72-3.31,7.3-.14,.96,1.35,1.37,1.49,.4Z"/><path class="f" d="M122.86,98.34c-5.01,1.16-10.26,1.21-15.38,1.12-5.27-.1-10.83-.17-15.67-2.5-4.26-2.04-8.07-6.28-7.69-11.22,.19-2.44,1.56-4.77,3.97-5.62,2.76-.98,5.86,.27,8.61,.84,4.05,.83,8.13,1.53,12.18,2.35,.97,.2,1.39-1.27,.41-1.47-4.19-.85-8.41-1.57-12.6-2.44-2.88-.6-5.89-1.75-8.81-.82-2.28,.73-3.91,2.36-4.74,4.56-1.85,4.86,.88,10.13,4.74,13.17,4.52,3.55,10.45,4.35,16.04,4.56,6.42,.24,13.06,.39,19.35-1.07,.97-.22,.56-1.69-.41-1.47h0Z"/><path class="f" d="M116.96,117.56c-4.48,1.37-9.22,1.37-13.86,1.19-4.62-.17-9.1-.72-13.24-2.89-3.89-2.04-7.47-5.44-8.38-9.83-.82-3.94,1.27-8.47,5.46-9.45,.97-.23,.56-1.69-.41-1.47-3.2,.75-5.55,3.37-6.42,6.44-.98,3.46,.16,7.14,2.25,9.98,2.28,3.1,5.57,5.33,9.15,6.75,3.8,1.5,7.76,1.85,11.81,2,4.7,.17,9.52,.14,14.06-1.25,.95-.29,.54-1.76-.41-1.47h0Z"/><path class="f" d="M108.35,136.12c-4.81,.67-9.62,.46-14.4-.33-3.68-.6-7.3-1.94-10.08-4.46-5.53-5.01-5.31-13.83,.58-18.5,.78-.61-.32-1.69-1.09-1.08-4.66,3.69-6.41,10.46-4.05,15.89,2.73,6.27,9.47,8.96,15.89,9.86,4.53,.63,9.02,.7,13.56,.08,.98-.14,.56-1.6-.41-1.47h0Z"/><path class="f" d="M74.93,133.49c-.42-1.72-.09-3.66,.64-5.26,.34-.74,.77-1.45,1.36-2.02,.25-.24,.49-.42,.81-.57,.23-.1,.43-.15,.73-.14,1,.03,.99-1.5,0-1.52-1.99-.05-3.43,1.77-4.19,3.37-.96,2.01-1.38,4.36-.85,6.54,.23,.95,1.72,.55,1.49-.4h0Z"/><path class="f" d="M56.45,96.35c5.02,.33,10.04-1.46,13.73-4.82,.73-.67-.36-1.74-1.09-1.08-3.4,3.1-8.02,4.68-12.64,4.38-.99-.06-.99,1.46,0,1.52h0Z"/><path class="f" d="M109.33,85.71c0-1.35,.66-2.72,1.55-3.78,.44-.53,.97-1.05,1.52-1.44s1.04-.66,1.63-.81c.96-.26,.55-1.73-.41-1.47-1.55,.41-2.9,1.51-3.89,2.72-1.11,1.36-1.94,3.01-1.94,4.78,0,.98,1.55,.98,1.55,0h0Z"/><path class="f" d="M52.74,39.15c-.27,0-.51-.18-.58-.43-1.59-5.7-4-8.65-8.05-9.87-.25-.08-.42-.3-.42-.56,0-.26,.17-.49,.42-.56,4.08-1.22,6.47-4.15,8.01-9.78,.07-.26,.3-.43,.57-.44,.25,0,.51,.17,.58,.42,1.26,4.23,3.12,8.34,8.08,9.77,.25,.07,.43,.3,.43,.56s-.17,.49-.42,.57c-4.12,1.27-6.53,4.23-8.04,9.89-.07,.26-.3,.44-.58,.44h0Zm-6.77-10.87c3.78,1.7,5.62,4.92,6.76,8.23,1.08-3.18,2.92-6.48,6.76-8.24-3.72-1.65-5.58-4.87-6.77-8.19-1.08,3.18-2.92,6.48-6.74,8.2Z"/><path class="d" d="M160,67.5c-4.85,1.5-7.08,5.24-8.44,10.3-1.41-5.05-3.59-8.81-8.46-10.28,4.85-1.46,7.05-5.18,8.41-10.19,1.46,4.87,3.55,8.75,8.49,10.17Z"/><path class="d" d="M12.4,132.85c-3.56,1.1-5.2,3.84-6.2,7.56-1.04-3.71-2.64-6.47-6.21-7.54,3.56-1.07,5.17-3.81,6.17-7.48,1.07,3.57,2.6,6.42,6.23,7.46Z"/><path class="d" d="M146.74,137.28c-2.09,.65-3.05,2.26-3.64,4.44-.61-2.18-1.55-3.79-3.64-4.43,2.09-.63,3.04-2.23,3.62-4.39,.63,2.1,1.53,3.77,3.65,4.38Z"/><path class="f" d="M146.89,100.86c1.02-.73,2.71-1.4,3.79-.39,.38,.35,.64,.89,.6,1.41-.04,.39-.46,1.13-.92,.73-.5-.43-.03-1.06,.41-1.3,.67-.37,1.54-.25,2.27-.15,1.02,.14,2.52,.4,2.92,1.49,.26,.71,1.42,.4,1.15-.31-.54-1.48-2.06-2.05-3.53-2.28-1.57-.25-3.76-.36-4.49,1.4-.66,1.59,1.23,3.23,2.64,2,1.17-1.02,.83-2.84-.21-3.82-1.46-1.39-3.75-.86-5.24,.2-.62,.44-.02,1.46,.6,1.02h0Z"/><path class="f" d="M12.4,64.48c-.11-2.22-1.03-4.36-2.64-5.93-1.44-1.41-3.96-2.54-5.66-.84-1.51,1.51-.25,3.78,1.62,4.2,2.01,.45,3.49-1.31,3.68-3.12,.27-2.5-1.78-4.38-3.84-5.46-.76-.4-1.44,.74-.68,1.14,1.32,.69,2.73,1.69,3.12,3.2,.27,1.05-.12,2.71-1.38,2.97-1.03,.21-2.53-1.03-1.59-1.99,1.2-1.23,3.05,.09,3.94,1.02,1.25,1.3,1.98,3.03,2.07,4.82,.04,.84,1.38,.85,1.34,0h0Z"/><path class="f" d="M41.85,65.65l10.03-.75c2.33-.17,4.07,1.88,3.27,3.85-4.28,10.59-13.83,38.97-4.09,61.49,.83,1.92-.75,3.97-3.03,3.93l-18.02-.3c-1.34-.02-2.51-.8-2.97-1.94-10.11-25.1-.61-55.69,2.16-63.55,.39-1.12,1.49-1.9,2.79-2"/><path class="e" d="M44.9,134.17c-17.24-38.92,3.26-68.55,3.48-68.96l1.16-.09c-.22,.41-20.49,30.58-3.44,69.06h-1.2Z"/><path class="f" d="M87.55,24.8c-.14,0-.29-.04-.42-.11l-9.73-5.53c-.41-.23-.55-.75-.31-1.15,.23-.4,.76-.54,1.17-.31l9.73,5.53c.41,.23,.55,.75,.31,1.15-.16,.27-.45,.42-.74,.42Z"/><path class="f" d="M93.17,17.98c-.25,0-.5-.11-.67-.32l-5.61-7.04c-.29-.37-.23-.9,.14-1.19,.37-.29,.91-.23,1.2,.14l5.61,7.04c.29,.37,.23,.9-.14,1.19-.16,.12-.34,.18-.53,.18Z"/><path class="f" d="M125.48,26.54c-.39,0-.74-.27-.83-.66-.1-.46,.19-.91,.65-1.01l10.74-2.37c.46-.1,.92,.18,1.02,.64,.1,.46-.19,.91-.65,1.01l-10.74,2.37c-.06,.01-.13,.02-.19,.02Z"/><path class="f" d="M101.9,13.26c-.39,0-.75-.27-.83-.67l-2.55-11.57c-.1-.46,.19-.91,.65-1.01,.46-.1,.92,.19,1.02,.65l2.55,11.57c.1,.46-.19,.91-.65,1.01-.06,.01-.12,.02-.18,.02Z"/><path class="f" d="M113.03,13.38c-.09,0-.18-.01-.27-.04-.45-.15-.69-.63-.54-1.07l3.08-9.03c.15-.44,.63-.68,1.08-.53,.45,.15,.69,.63,.54,1.07l-3.08,9.03c-.12,.35-.45,.57-.81,.57Z"/><path class="f" d="M121.82,18.53c-.26,0-.52-.12-.69-.34-.28-.37-.2-.9,.17-1.18l11.05-8.14c.38-.28,.91-.2,1.2,.17,.28,.37,.2,.9-.17,1.18l-11.05,8.14c-.15,.11-.33,.17-.51,.17Z"/></g></g></g></svg>