<?xml version="1.0" encoding="UTF-8"?><svg xmlns="http://www.w3.org/2000/svg" viewBox="0 0 144 168"><defs><style>.d{fill:#0049ff;}.e{fill:#fff;}.f{fill:#111;}</style></defs><g id="a"/><g id="b"><g id="c"><g><path class="f" d="M94.77,75.8c4.31-1.57,8.65-1.55,11.79,2.17,.21,.25,.66,.29,.93,.12,2.24-1.4,5.11-.74,7.3,.44,2.58,1.39,4.17,3.63,5.08,6.39,.99,3,1.26,6.21,1.58,9.34,.26,2.56,.41,5.12,.26,7.68-.33,5.52-1.08,11.32-3.84,16.2-2.55,4.51-6.35,8.34-10.74,11.08s-9.79,5.07-15.13,6.03c-2.75,.5-5.54,.38-8.32,.37-3.39-.02-6.79-.08-10.18-.39-6.12-.55-12.21-1.89-17.29-5.49-4.82-3.41-8.49-8.36-10.7-13.81-2.75-6.79-3.47-14.35-2.72-21.6,.37-3.59,1.27-7.37,3.57-10.25,1.04-1.3,2.34-2.39,3.83-3.14,1.05-.53,3.21-1.4,4.42-.93,.51,.2,1.16-.42,.94-.94-3.24-7.87-4.52-16.31-4.84-24.77-.16-4.25-.09-8.51,.07-12.77,.15-3.96,.35-8,1.61-11.79,1.19-3.61,3.45-6.73,6.9-8.46,3.18-1.59,7.73-1.62,10,1.54,1.29,1.8,1,4.12,.82,6.19-.2,2.27-.37,4.54-.51,6.81-.28,4.63-.44,9.27-.48,13.9s-.12,9.46,.43,14.12c.47,4,1.57,7.84,4.11,11.04,.46,.57,1.26,.04,1.31-.54,.98-11.19,2.32-22.56,5.04-33.48,1.92-7.7,5.01-18.15,13.58-20.65,3.99-1.16,10.06,.02,10.67,4.99,.32,2.62-1.3,5.47-2.19,7.87-.96,2.6-1.88,5.21-2.76,7.84-1.96,5.86-3.73,11.78-5.25,17.77-1.37,5.39-2.42,11.24-.23,16.56,.37,.9,1.85,.5,1.48-.41-2.19-5.31-.99-11.05,.4-16.41,1.47-5.68,3.14-11.31,5-16.88,.95-2.86,1.96-5.71,3.01-8.53,.9-2.43,2.31-5.06,2.09-7.73-.36-4.31-4.66-6.96-8.67-7.08-10.17-.32-14.8,9.97-17.44,18.11-2.34,7.21-3.44,14.87-4.47,22.35-.72,5.2-1.34,10.43-1.8,15.66l1.31-.54c-2.66-3.35-3.52-7.65-3.84-11.82-.35-4.57-.29-9.2-.23-13.78,.07-4.97,.28-9.95,.63-14.91,.27-3.85,1.61-8.82-1.29-12-5.08-5.58-13.79-1.53-17.16,3.81-2.19,3.47-2.97,7.6-3.33,11.62-.39,4.36-.45,8.78-.43,13.15,.04,10.05,1.12,20.23,4.98,29.59l.94-.94c-.96-.38-2.52,0-3.48,.26-1.47,.4-2.84,1.13-4.04,2.06-2.51,1.94-4.14,4.69-5.09,7.68-1.05,3.29-1.33,6.83-1.38,10.27s.25,7.12,.96,10.6c1.33,6.52,4.23,12.72,8.81,17.59,4.44,4.72,10.01,7.56,16.32,8.85,7.02,1.43,14.41,1.49,21.54,1.29,5.78-.16,11.61-2.41,16.65-5.11,5.06-2.71,9.32-6.35,12.6-11.08,3.46-4.99,4.52-10.74,5.14-16.66,.34-3.22,.29-6.39-.02-9.61-.36-3.73-.64-7.64-2.03-11.15-1.17-2.96-3.15-5.28-6.06-6.64-2.56-1.2-5.71-1.7-8.23-.13l.93,.12c-3.47-4.12-8.49-4.31-13.28-2.57-.92,.33-.52,1.81,.41,1.48Z"/><g><path class="f" d="M89.64,77.04c-5.31,4.48-8.56,10.79-10.18,17.46,.5,.45,.89,1,1.16,1.61,.64-2.99,1.58-5.9,2.89-8.59,1.75-3.6,4.15-6.81,7.21-9.4,.75-.64-.33-1.71-1.08-1.08Z"/><path class="f" d="M94.51,118.94c-1.37,1.23-2.93,2.36-4.84,2.42-1.9,.07-3.81-.81-5.24-2.02-3.1-2.62-4.36-6.64-4.68-10.56-.08-.94-.11-1.89-.12-2.84-.42,.45-.95,.82-1.58,1.07,.16,5.43,1.61,10.79,6.05,14,1.73,1.25,3.94,2.07,6.1,1.84,2.11-.22,3.85-1.45,5.39-2.84,.73-.66-.35-1.74-1.08-1.08Z"/></g><path class="f" d="M101.83,79.52c-7.31,6.9-11.71,16.66-12.03,26.7-.15,4.7,.32,10.34,4.29,13.49,3.79,3.01,8.7,1.56,11.51-2.03,1.84-2.36,2.68-5.29,3.39-8.14,.88-3.57,1.73-7.15,2.59-10.72,.23-.96-1.25-1.37-1.48-.41l-1.9,7.89c-.6,2.47-1.1,5.01-2.07,7.38-1.72,4.18-6.4,8.3-10.88,5.01-3.87-2.84-4.08-8.51-3.9-12.87s1.24-8.96,3.04-13.09c1.99-4.58,4.89-8.7,8.52-12.13,.72-.68-.37-1.76-1.08-1.08h0Z"/><path class="f" d="M59,83.53c7.38,2.84,17.38,4.43,21.11,12.42,1.57,3.36,1.79,9.28-2.68,10.46-3.69,.98-8.05-.8-11.41-2.2-4.14-1.72-8.16-3.78-12.62-4.54-.96-.16-1.38,1.31-.41,1.48,4.6,.78,8.73,2.95,13.01,4.7,3.65,1.49,8.43,3.26,12.37,1.87,3.91-1.38,4.82-6.05,4.04-9.69-.92-4.31-4.03-7.65-7.69-9.91-4.71-2.9-10.2-4.1-15.31-6.07-.92-.35-1.32,1.12-.41,1.48h0Z"/><path class="f" d="M75.6,94.46c-1.78-.16-3.37,1.1-4.16,2.61-.98,1.86-.85,4.04-.89,6.08-.02,.79,1.21,.79,1.23,0,.03-1.73-.12-3.63,.61-5.25,.57-1.25,1.75-2.35,3.21-2.22,.79,.07,.78-1.16,0-1.22h0Z"/><path class="f" d="M140.26,80.75c1.24-.53,2.39-.56,3.52-.04,.29,.13,.29,.55,.02,.7-1.42,.79-1.79,.8-3.54,.06-.32-.13-.32-.59,0-.72Z"/><path class="f" d="M133.33,80.79c1.29-.59,2.46-.59,3.65-.06,.28,.13,.33,.51,.07,.69-1.17,.82-2.38,.65-3.71,.09-.31-.13-.32-.58-.01-.72Z"/><path class="f" d="M138.2,79.4c-.53-1.24-.57-2.39-.04-3.52,.13-.29,.55-.29,.7-.02,.79,1.41,.8,1.79,.06,3.53-.13,.32-.59,.32-.72,0Z"/><path class="f" d="M138.24,86.32c-.59-1.29-.59-2.46-.06-3.64,.13-.28,.51-.33,.69-.07,.82,1.17,.65,2.37,.09,3.7-.13,.31-.58,.32-.72,.01Z"/><path class="f" d="M23.95,137.91c.86-.37,1.65-.39,2.42-.03,.2,.09,.2,.38,.01,.48-.97,.54-1.23,.55-2.44,.04-.22-.09-.22-.41,0-.5Z"/><path class="f" d="M19.18,137.94c.89-.41,1.69-.41,2.51-.04,.19,.09,.23,.35,.05,.48-.81,.56-1.64,.45-2.55,.06-.21-.09-.22-.4,0-.49Z"/><path class="f" d="M22.53,136.98c-.37-.86-.39-1.64-.03-2.42,.09-.2,.38-.2,.48-.01,.54,.97,.55,1.23,.04,2.43-.09,.22-.41,.22-.5,0Z"/><path class="f" d="M22.56,141.75c-.41-.89-.41-1.69-.04-2.51,.09-.19,.35-.23,.48-.05,.57,.81,.45,1.64,.06,2.55-.09,.21-.4,.22-.49,0Z"/><path class="f" d="M7.35,66.3c1.28-.55,2.45-.58,3.62-.04,.29,.14,.3,.56,.02,.72-1.45,.81-1.84,.82-3.63,.07-.33-.14-.33-.6,0-.74Z"/><path class="f" d="M.23,66.34c1.33-.6,2.53-.61,3.75-.06,.29,.13,.34,.53,.08,.71-1.21,.84-2.44,.66-3.81,.09-.32-.13-.33-.59-.01-.74Z"/><path class="f" d="M5.23,64.91c-.55-1.28-.58-2.45-.04-3.61,.14-.29,.56-.3,.72-.02,.81,1.45,.82,1.84,.07,3.63-.14,.32-.61,.32-.74,0Z"/><path class="f" d="M5.27,72.02c-.61-1.33-.61-2.52-.06-3.74,.13-.29,.53-.34,.71-.08,.84,1.21,.67,2.44,.09,3.81-.13,.32-.59,.33-.74,.01Z"/><polygon class="d" points="110.01 16.56 112.35 19.69 133.8 3.51 129.71 0 110.01 16.56"/><polygon class="d" points="38.47 24.2 36.03 27.41 14.07 10.55 18.3 6.97 38.47 24.2"/><polygon class="d" points="44.95 18.22 42.87 19.2 36.21 4.91 39.29 4.21 44.95 18.22"/><polygon class="d" points="112.14 30.99 111.85 27.57 133.46 25.52 134.73 30.4 112.14 30.99"/><path class="f" d="M120.93,127.15l1.93,34.69c.03,.62-.56,1.15-1.34,1.21l-65.1,4.95c-.82,.06-1.55-.41-1.63-1.05l-3.72-32.14c-.07-.61,.49-1.17,1.27-1.25l66.89-7.49c.87-.1,1.66,.41,1.7,1.1Z"/><polygon class="e" points="51.87 142.42 51.77 141.4 121.3 133.37 121.39 134.39 51.87 142.42"/><path class="f" d="M36.02,28.17c-.15,0-.3-.04-.44-.14L11.56,11.38c-.35-.24-.43-.72-.19-1.06,.24-.35,.72-.43,1.07-.19l24.03,16.66c.35,.24,.43,.72,.19,1.06-.15,.21-.39,.33-.63,.33Z"/><path class="f" d="M112.79,21.19c-.24,0-.48-.12-.63-.33-.24-.35-.15-.82,.2-1.06l22.65-15.54c.35-.24,.83-.15,1.06,.2,.24,.35,.15,.82-.2,1.06l-22.65,15.54c-.13,.09-.28,.13-.43,.13Z"/><path class="f" d="M42.77,21.04c-.26,0-.52-.14-.66-.38l-8.81-15.25c-.21-.37-.09-.83,.28-1.04,.37-.21,.83-.09,1.05,.28l8.81,15.25c.21,.37,.09,.83-.28,1.04-.12,.07-.25,.1-.38,.1Z"/><path class="f" d="M135.16,32.69h-22.64c-.42,0-.77-.34-.77-.77s.34-.77,.77-.77h22.64c.42,0,.77,.34,.77,.77s-.34,.77-.77,.77Z"/></g></g></g></svg>