<?xml version="1.0" encoding="UTF-8"?><svg xmlns="http://www.w3.org/2000/svg" viewBox="0 0 154 178"><defs><style>.d{fill:#0049ff;}.e{fill:#111;}</style></defs><g id="a"/><g id="b"><g id="c"><g><path class="d" d="M26.53,34.31c2.56-1.12,4.85-.79,7.25,.56-2.38,1.38-4.67,1.68-7.23,.53,2.47,1.22,4.01,3.05,4.77,5.71-2.59-.76-4.5-2.09-5.59-4.65,1,2.56,.63,4.86-.69,7.2-1.12-2.21-1.71-4.37-.75-6.88-1.1,2.4-3.01,3.53-5.42,4.3,.7-2.65,2.13-4.51,4.75-5.59-2.52,.91-4.84,.83-7.03-.48,1.81-1.4,2.66-1.49,6.96-.71-.78-1.19-2.41-1.09-3.08-2.22-.61-1.04-1.14-2.13-1.85-3.49,2.62,.84,4.6,1.92,5.68,4.41-1.02-2.49-.29-4.65,.71-6.96,1.31,2.34,1.9,4.62,.66,7.25,1.17-2.55,3.09-3.87,5.61-4.62-.71,2.62-2.16,4.52-4.75,5.65Z"/><path class="d" d="M150.34,50.24c1.29-.57,2.45-.4,3.66,.28-1.2,.7-2.36,.85-3.65,.27,1.25,.61,2.03,1.54,2.41,2.88-1.31-.38-2.27-1.06-2.82-2.35,.51,1.29,.32,2.45-.35,3.63-.56-1.12-.86-2.21-.38-3.47-.55,1.21-1.52,1.78-2.74,2.17,.35-1.34,1.08-2.27,2.4-2.82-1.27,.46-2.44,.42-3.55-.24,.91-.71,1.34-.75,3.51-.36-.39-.6-1.22-.55-1.56-1.12-.31-.52-.57-1.07-.94-1.76,1.32,.43,2.32,.97,2.87,2.23-.51-1.26-.15-2.35,.36-3.51,.66,1.18,.96,2.33,.33,3.66,.59-1.28,1.56-1.96,2.83-2.33-.36,1.32-1.09,2.28-2.4,2.85Z"/><path class="d" d="M5.02,140.73c1.29-.57,2.45-.4,3.66,.28-1.2,.7-2.36,.85-3.65,.27,1.25,.61,2.03,1.54,2.41,2.88-1.31-.38-2.27-1.06-2.82-2.35,.51,1.29,.32,2.45-.35,3.63-.56-1.12-.86-2.21-.38-3.47-.55,1.21-1.52,1.78-2.74,2.17,.35-1.34,1.08-2.27,2.4-2.82-1.27,.46-2.44,.42-3.55-.24,.91-.71,1.34-.75,3.51-.36-.39-.6-1.22-.55-1.56-1.12-.31-.52-.57-1.07-.94-1.76,1.32,.43,2.32,.97,2.87,2.23-.51-1.26-.15-2.35,.36-3.51,.66,1.18,.96,2.33,.33,3.66,.59-1.28,1.56-1.96,2.83-2.33-.36,1.32-1.09,2.28-2.4,2.85Z"/><path class="e" d="M86.13,178c-9.75,0-19.33-1.15-27.88-4.11-13.55-4.69-18.02-11.62-18.2-11.92-.13-.22-11.44-20.15-.65-33.65,.26-.32,.73-.37,1.05-.12,.32,.26,.37,.72,.12,1.04-10.16,12.71,.65,31.77,.76,31.96,.16,.25,18.11,27.09,89.41,9.06,.05-.02,12.79-5.01,14.05-15.07-.13-2.83-2.21-50.94,2.87-63.79,2.19-5.54,1.47-10.5-1.87-12.94-3.44-2.51-8.74-1.62-13.51,2.25-.15,.12-.34,.19-.53,.16-.06,0-6.39-.48-10.37,3.15-2.15,1.96-3.26,4.79-3.3,8.41,0,.21-.09,.41-.25,.55s-.37,.21-.58,.18c-.12-.01-3.08-.29-6.47,2.88-5,4.68-10.69,16.67-9.36,47.19,0,.07,0,.15-.02,.22,0,.04-1.04,3.69-6.24,2.83-.8-.13-2.32-.66-4.64-1.47-8.91-3.1-27.46-9.56-37.94-4.4-3.19,1.57-5.39,4.14-6.56,7.66-.13,.39-.55,.6-.94,.47-.39-.13-.6-.55-.47-.94,1.3-3.91,3.76-6.78,7.32-8.52,11.05-5.43,29.99,1.16,39.09,4.33,2.08,.72,3.72,1.3,4.39,1.41,3.44,.58,4.36-1.22,4.53-1.66-1.33-31.09,4.65-43.41,9.91-48.27,2.84-2.62,5.49-3.13,6.78-3.21,.18-3.7,1.44-6.65,3.77-8.76,3.99-3.63,9.79-3.61,11.19-3.55,5.25-4.16,11.16-5,15.1-2.12,3.92,2.86,4.83,8.49,2.38,14.68-5.01,12.67-2.79,62.74-2.77,63.24,0,.04,0,.08,0,.12-1.32,11-14.52,16.15-15.09,16.37-12.96,3.28-29.22,6.32-45.05,6.32Z"/><path class="e" d="M135.33,142.39h0c-.41,0-.74-.33-.74-.74,0-.27,1.7-35.41,3.3-42.96,1.63-7.69,2.15-15.81-6.25-17.81-.4-.09-.65-.5-.55-.89,.1-.4,.5-.64,.9-.55,10.95,2.61,8.35,14.93,7.37,19.57-1.55,7.32-3.25,41.41-3.27,42.66,0,.41-.34,.73-.74,.73Z"/><path class="e" d="M123.54,147.09s-.03,0-.05,0c-.41-.03-.72-.38-.7-.79,.09-1.45,2.21-35.71,3.66-42.44,.62-2.87,.02-5.56-1.69-7.59-1.75-2.08-4.46-3.2-7.41-3.09-.43,.04-.76-.3-.77-.71s.3-.76,.71-.77c3.43-.14,6.56,1.19,8.61,3.62,2.01,2.39,2.72,5.53,2,8.86-1.43,6.62-3.61,41.86-3.63,42.21-.02,.39-.35,.7-.74,.7Z"/><path class="e" d="M53.54,139.31c-.31,0-.6-.2-.71-.51-.39-1.18-.59-2.42-.59-3.68v-3.55c-.53,.08-1.07,.14-1.6,.18-3.76,.27-7.59-.55-11.07-2.36-8.34-4.33-14.08-13.66-15-24.36-.72-8.48,1.72-16.68,6.69-22.48,3.87-4.52,9.04-7.22,14.56-7.62,2.15-.15,4.3,.04,6.42,.58v-9.2c0-.41,.33-.74,.74-.74s.74,.33,.74,.74v10.18c0,.24-.11,.46-.3,.6-.19,.14-.44,.18-.66,.11-2.25-.69-4.55-.95-6.84-.79-5.11,.36-9.92,2.88-13.53,7.1-4.72,5.51-7.03,13.3-6.34,21.39,.87,10.19,6.31,19.07,14.2,23.17,3.29,1.71,6.74,2.44,10.28,2.2,.77-.05,1.54-.16,2.31-.31,.22-.04,.45,.01,.62,.15,.17,.14,.27,.35,.27,.57v4.43c0,1.1,.17,2.18,.52,3.21,.13,.39-.08,.81-.47,.94-.08,.03-.16,.04-.23,.04Zm-4.66-16.94c-8.35,0-15.66-7.81-16.52-17.89-.48-5.66,1.15-11.14,4.48-15.02,2.6-3.03,6.07-4.85,9.78-5.11,2.27-.17,4.51,.25,6.67,1.22,.27,.12,.44,.38,.44,.68v34.7c0,.32-.2,.6-.5,.7-1.11,.38-2.25,.61-3.39,.69h0c-.32,.02-.64,.03-.95,.03Zm-1.3-36.57c-.28,0-.57,0-.85,.03-3.31,.24-6.41,1.87-8.75,4.6-3.07,3.58-4.57,8.66-4.12,13.93,.82,9.66,7.95,17.06,15.88,16.5h0c.84-.06,1.68-.21,2.51-.46v-33.67c-1.52-.62-3.08-.93-4.66-.93Zm80.48-4.91c-.41,0-.74-.33-.74-.74v-13.83c0-.41,.33-.74,.74-.74s.74,.33,.74,.74v13.83c0,.41-.33,.74-.74,.74Z"/><path class="e" d="M96.89,51.25c-1.03,0-2-.24-2.87-.71-1.83-1-3.07-2.44-3.58-4.17-.51-1.74-.24-3.64,.77-5.5,1.01-1.85,2.63-3.37,4.44-4.18,2.01-.89,4.09-.85,5.87,.12,4.09,2.23,5.44,5.8,3.52,9.32-1,1.83-2.79,3.45-4.79,4.35-1.14,.51-2.28,.77-3.35,.77Zm1.65-13.71c-.75,0-1.52,.17-2.28,.51-1.52,.67-2.88,1.96-3.74,3.53-.82,1.5-1.04,3.01-.65,4.37,.39,1.35,1.38,2.48,2.86,3.29h0c1.36,.74,3.1,.7,4.9-.11,1.72-.77,3.25-2.16,4.1-3.71,1.51-2.76,.41-5.49-2.92-7.3-.7-.38-1.47-.57-2.27-.57Z"/><path class="e" d="M73.87,30.59c-4.19,0-7.89-1.6-10.5-4.57-6.54-7.43-6.74-15.44-.52-20.9C66.16,2.23,70.92,.32,75.6,.04c5.14-.32,9.52,1.27,12.32,4.45,.09,.1,.17,.19,.25,.29,.9-.77,1.94-1.29,3.11-1.55h0c5.36-1.21,9.34,.9,10.38,5.5,.54,2.4,.22,5.25-.85,7.61-1.2,2.63-3.14,4.36-5.45,4.88-1.76,.4-3.45,.33-4.94-.2-.91,1.65-2.15,3.18-3.71,4.54-3.35,2.94-7.68,4.76-11.88,4.99-.32,.02-.63,.03-.94,.03Zm3-29.1c-.39,0-.78,.01-1.18,.04-4.36,.27-8.79,2.03-11.85,4.72-2.91,2.55-4.26,5.59-4.01,9.02,.23,3.19,1.84,6.57,4.67,9.78,2.5,2.84,6.14,4.25,10.24,4.04,3.87-.22,7.88-1.91,10.98-4.63,1.6-1.4,2.84-2.99,3.68-4.7,.18-.36,.62-.52,.98-.35,1.34,.63,2.94,.75,4.64,.37,1.85-.42,3.42-1.86,4.42-4.05,.95-2.08,1.23-4.57,.76-6.67-.85-3.76-4.06-5.4-8.6-4.38-1.14,.26-2.14,.83-2.97,1.71-.15,.16-.35,.26-.58,.23-.22,0-.42-.12-.55-.29-.24-.31-.46-.59-.7-.86-2.28-2.59-5.78-3.98-9.93-3.98Z"/><path class="e" d="M90.52,73.19c-15.39,0-38.28-1.83-38.28-6.87s22.89-6.87,38.28-6.87,38.28,1.83,38.28,6.87-22.89,6.87-38.28,6.87Zm0-12.25c-22.46,0-36.79,3.19-36.79,5.38s14.33,5.38,36.79,5.38,36.79-3.19,36.79-5.38-14.33-5.38-36.79-5.38Z"/><path class="e" d="M121.26,69.76c-6.72-1.59-17.98-2.64-30.74-2.64s-24.01,1.05-30.74,2.64c6.72,1.59,17.98,2.64,30.74,2.64s24.01-1.05,30.74-2.64Z"/></g></g></g></svg>