<?xml version="1.0" encoding="UTF-8"?><svg xmlns="http://www.w3.org/2000/svg" viewBox="0 0 140 14"><defs><style>.d{fill:#e5edff;}</style></defs><g id="a"/><g id="b"><g id="c"><path class="d" d="M136.15,1.6c-2.55,1.06-5.19,1.58-7.82,1.6-2.63-.02-5.27-.54-7.82-1.6l-3.85-1.6-3.85,1.6c-2.55,1.06-5.19,1.58-7.82,1.6-2.63-.02-5.27-.54-7.82-1.6l-3.85-1.6-3.85,1.6c-2.55,1.06-5.19,1.58-7.82,1.6-2.63-.02-5.27-.54-7.82-1.6l-3.85-1.6-3.85,1.6c-2.55,1.06-5.19,1.58-7.82,1.6-2.63-.02-5.27-.54-7.82-1.6l-3.85-1.6-3.85,1.6c-2.55,1.06-5.19,1.58-7.82,1.6-2.63-.02-5.27-.54-7.82-1.6l-3.85-1.6-3.85,1.6c-2.55,1.06-5.19,1.58-7.82,1.6-2.63-.02-5.27-.54-7.82-1.6L0,0V10.8l3.79,1.58c2.57,1.07,5.22,1.6,7.87,1.61,2.65-.02,5.31-.54,7.87-1.61l3.79-1.58,3.79,1.58c2.57,1.07,5.22,1.6,7.87,1.61,2.65-.02,5.31-.54,7.87-1.61l3.79-1.58,3.79,1.58c2.57,1.07,5.22,1.6,7.87,1.61,2.65-.02,5.31-.54,7.87-1.61l3.79-1.58,3.79,1.58c2.57,1.07,5.22,1.6,7.87,1.61,2.65-.02,5.31-.54,7.87-1.61l3.79-1.58,3.79,1.58c2.57,1.07,5.22,1.6,7.87,1.61,2.65-.02,5.31-.54,7.87-1.61l3.79-1.58,3.79,1.58c2.57,1.07,5.22,1.6,7.87,1.61,2.65-.02,5.31-.54,7.87-1.61l3.79-1.58V0l-3.85,1.6Z"/></g></g></svg>