<?xml version="1.0" encoding="UTF-8"?><svg xmlns="http://www.w3.org/2000/svg" viewBox="0 0 140 170"><defs><style>.d{fill:#f3f7ff;}</style></defs><g id="a"/><g id="b"><g id="c"><g><path class="d" d="M12.35,45.57c17.15,3.83,18.93,7.26,18.93,7.26l-17.94,2.95c1.65,20.97,1.93,47.7-3.85,69.86,4.54,2.03,9.19,3.04,13.84,3.08,5.27-.05,10.54-1.32,15.64-3.94l7.69-3.94,7.69,3.94c5.1,2.61,10.37,3.89,15.64,3.94,5.27-.05,10.54-1.32,15.64-3.94l7.69-3.94,7.69,3.94c5.1,2.61,10.37,3.89,15.64,3.94,2.75-.02,5.51-.39,8.24-1.11C120.02,97.93,99.14,29.43,7.3,.14,5.2-.53,3.18,1.37,3.87,3.42c2.51,7.51,6.27,23.08,8.48,42.15Z"/><path class="d" d="M132.31,139.42c-5.1,2.61-10.37,3.89-15.64,3.94-5.27-.05-10.54-1.32-15.64-3.94l-7.69-3.94-7.69,3.94c-5.1,2.61-10.37,3.89-15.64,3.94-5.27-.05-10.54-1.32-15.64-3.94l-7.69-3.94-7.69,3.94c-5.1,2.61-10.37,3.89-15.64,3.94-5.27-.05-10.54-1.32-15.64-3.94l-7.69-3.94v26.64l7.59,3.9c5.14,2.65,10.44,3.94,15.75,3.98,5.31-.04,10.61-1.34,15.75-3.98l7.58-3.9,7.59,3.9c5.14,2.65,10.44,3.94,15.75,3.98,5.31-.04,10.61-1.34,15.75-3.98l7.59-3.9,7.58,3.9c5.14,2.65,10.44,3.94,15.75,3.98,5.31-.04,10.61-1.34,15.75-3.98l7.59-3.9v-26.64l-7.69,3.94Z"/></g></g></g></svg>