<?xml version="1.0" encoding="UTF-8"?><svg xmlns="http://www.w3.org/2000/svg" viewBox="0 0 64 78"><defs><style>.d{fill:#0049ff;}</style></defs><g id="a"/><g id="b"><g id="c"><g><path class="d" d="M5.65,20.91c7.84,1.76,8.65,3.33,8.65,3.33l-8.2,1.35c.76,9.62,.88,21.88-1.76,32.05,2.07,.93,4.2,1.39,6.33,1.41,2.41-.02,4.82-.61,7.15-1.81l3.52-1.81,3.52,1.81c2.33,1.2,4.74,1.79,7.15,1.81,2.41-.02,4.82-.61,7.15-1.81l3.52-1.81,3.52,1.81c2.33,1.2,4.74,1.79,7.15,1.81,1.26-.01,2.52-.18,3.77-.51C54.86,44.93,45.32,13.5,3.34,.06c-.96-.31-1.88,.56-1.57,1.5,1.15,3.44,2.87,10.59,3.88,19.34Z"/><path class="d" d="M60.48,63.97c-2.33,1.2-4.74,1.79-7.15,1.81-2.41-.02-4.82-.61-7.15-1.81l-3.52-1.81-3.52,1.81c-2.33,1.2-4.74,1.79-7.15,1.81-2.41-.02-4.82-.61-7.15-1.81l-3.52-1.81-3.52,1.81c-2.33,1.2-4.74,1.79-7.15,1.81-2.41-.02-4.82-.61-7.15-1.81l-3.52-1.81v12.22l3.47,1.79c2.35,1.21,4.77,1.81,7.2,1.83,2.43-.02,4.85-.61,7.2-1.83l3.47-1.79,3.47,1.79c2.35,1.21,4.77,1.81,7.2,1.83,2.43-.02,4.85-.61,7.2-1.83l3.47-1.79,3.47,1.79c2.35,1.21,4.77,1.81,7.2,1.83,2.43-.02,4.85-.61,7.2-1.83l3.47-1.79v-12.22l-3.52,1.81Z"/></g></g></g></svg>