<svg width="78" height="14" viewBox="0 0 78 14" fill="none" xmlns="http://www.w3.org/2000/svg">
<path d="M75.43 1.6C73.72 2.66 71.96 3.18 70.2 3.2C68.44 3.18 66.68 2.66 64.97 1.6L62.4 0L59.83 1.6C58.12 2.66 56.36 3.18 54.6 3.2C52.84 3.18 51.08 2.66 49.37 1.6L46.8 0L44.23 1.6C42.52 2.66 40.76 3.18 39 3.2C37.24 3.18 35.48 2.66 33.77 1.6L31.2 0L28.63 1.6C26.92 2.66 25.16 3.18 23.4 3.2C21.64 3.18 19.88 2.66 18.17 1.6L15.6 0L13.03 1.6C11.32 2.66 9.56 3.18 7.8 3.2C6.04 3.18 4.28 2.66 2.57 1.6L0 0V10.8L2.54 12.38C4.26 13.45 6.03 13.98 7.8 13.99C9.57 13.97 11.35 13.45 13.06 12.38L15.6 10.8L18.14 12.38C19.86 13.45 21.63 13.98 23.4 13.99C25.17 13.97 26.95 13.45 28.66 12.38L31.2 10.8L33.74 12.38C35.46 13.45 37.23 13.98 39 13.99C40.77 13.97 42.55 13.45 44.26 12.38L46.8 10.8L49.34 12.38C51.06 13.45 52.83 13.98 54.6 13.99C56.37 13.97 58.15 13.45 59.86 12.38L62.4 10.8L64.94 12.38C66.66 13.45 68.43 13.98 70.2 13.99C71.97 13.97 73.75 13.45 75.46 12.38L78 10.8V0L75.43 1.6Z" fill="#FFE9EB"/>
</svg>
