<?xml version="1.0" encoding="UTF-8"?><svg xmlns="http://www.w3.org/2000/svg" viewBox="0 0 178 166"><defs><style>.d{fill:#eecae1;}.e{fill:#ff9ade;}.f{fill:#fff;}.g{fill:#ffeda4;}.h{fill:#fff4b7;}.i{fill:#ffd760;}.j{fill:#f22c3b;}.k{fill:#ff9136;}.l{fill:#a4beff;}.m{fill:#c0daff;}.n{fill:#cd68fc;}.o{fill:#dbecfa;}.p{fill:#a6ffbf;}.q{fill:#111;}</style></defs><g id="a"/><g id="b"><g id="c"><g><path class="g" d="M16.67,47.16l-3.03,.09c-.41,.01-.79,.23-1.01,.57l-1.64,2.54c-.56,.87-1.88,.72-2.23-.25l-1.03-2.84c-.14-.39-.46-.68-.86-.78l-2.94-.77c-1-.26-1.27-1.56-.45-2.19l2.4-1.85c.33-.25,.51-.65,.48-1.05l-.17-3.01c-.06-1.03,1.1-1.68,1.95-1.1l2.51,1.7c.34,.23,.77,.28,1.16,.13l2.83-1.09c.97-.37,1.95,.52,1.66,1.51l-.85,2.9c-.12,.39-.03,.82,.23,1.14l1.92,2.34c.66,.8,.11,2-.93,2.03Z"/><path class="k" d="M73.03,7.27l-1.5-.58c-.2-.08-.43-.05-.62,.07l-1.34,.9c-.46,.31-1.07-.04-1.04-.59l.09-1.6c.01-.22-.08-.43-.26-.56l-1.27-.98c-.44-.34-.29-1.02,.24-1.16l1.56-.41c.21-.06,.38-.21,.46-.41l.55-1.51c.19-.52,.89-.59,1.19-.13l.87,1.35c.12,.18,.32,.3,.54,.3l1.61,.05c.55,.02,.84,.66,.49,1.08l-1.02,1.24c-.14,.17-.19,.39-.12,.6l.45,1.54c.15,.53-.37,1-.88,.8Z"/><path class="j" d="M54.38,12.33c-1.04-1.88-3.3-2.34-4.98-1.01-1.07,.85-1.76,1.98-2.28,3.22-.51,1.21-.75,2.48-1,3.76-.05,.26-.05,.68-.37,.74-.33,.07-.43-.32-.61-.54-1.34-1.67-2.73-3.28-4.7-4.25-1.05-.52-2.13-.62-3.1,.18-.99,.81-1.29,1.86-1.02,3.1,.23,1.06,.74,1.99,1.39,2.84,1.94,2.55,4.35,4.58,7.07,6.26,.92,.75,1.96,1.29,3.05,1.74,.58,.24,1.2,.32,1.75-.12h0c.35-.13,.59-.4,.79-.69,2.65-3.75,4.19-7.91,4.55-12.48,.07-.95-.06-1.88-.54-2.74Z"/><path class="m" d="M1.06,74.21c1.5-1.65,3.91-1.91,5.76-.64,.41,.28,.85,.52,1.31,.7,.7,.27,1.4,.25,2.05-.21,.6-.42,1.17-.88,1.81-1.25,1.26-.73,2.5-.47,3.65,.25,.49,.3,.67,.86,.6,1.45-.06,.56-.43,.94-.9,1.17-.47,.23-.94,.1-1.31-.29-.38-.4-.7-.43-1.17-.04-1.04,.84-2.13,1.63-3.56,1.7-.99,.05-1.89-.18-2.75-.65-.48-.26-.96-.54-1.45-.8-1.03-.53-2.24-.03-2.58,1.05-.21,.67-.88,1.05-1.56,.87-.68-.18-1.07-.83-.93-1.52,.07-.35,.68-1.4,1.04-1.79Z"/><path class="l" d="M19.83,15.49c-1.49-.02-2.69-1.27-2.66-2.76,.03-1.37,1.27-2.6,2.57-2.55,1.43,.05,3.07,1.48,3.06,2.67-.01,1.37-1.48,2.67-2.97,2.65Z"/><path class="o" d="M178,116.2c-14.77,2.17-15.09,5.69-17.37,7.24-1.05,.72-4.75-10.69-4.91-11.44-1.84-8.68-.07-17.04,.66-25.71,.39-4.57,1.17-9.1,2.43-13.51,6.98-24.42-4.73-41.02-4.73-41.02l4.26-12.1c.54-1.53-.23-3.22-1.74-3.81-21.96-8.51-34.65,.06-34.65,.06-16.96-1.86-46.13,9.86-48.47,21.18-2.27,11.01,4.12,24.49,3.05,22.31,0,0-16.71,20.77-18.3,74.18v.76c.11,2.24,.76,13.15,4.18,19.15,1.6,2.82,3.9,5.74,7.39,6.5,9.95,2.15,13.19-.27,16.52-5.96,1.63-2.79,2.65-5.97,3.05-9.1,0,0,5.67,4.23,23.33,4.39l.2,1.26h.03c.49,2.71,1.41,5.41,2.82,7.82,3.33,5.69,9.59,8.37,16.81,7.39,6.83-.93,9.21-5.04,10.69-7.91,1.77-3.42,3.35-8.19,4.75-13.69l9.74-3.67c5.11,8.93,10.41,6.72,10.41,6.72-.24-5.73-1.08-11.3-1.08-11.3,8.56-12.43,10.95-19.74,10.95-19.74Z"/><path class="f" d="M128.44,53.9l-33.47-12.17c-27.43,26.25-32.87,95.23-27.57,117.34,.74,.43,1.54,.76,2.42,.95,9.95,2.15,13.19-.27,16.52-5.96,1.63-2.79,2.65-5.97,3.05-9.1,0,0,5.67,4.23,23.33,4.39l.2,1.26h.03c.49,2.71,1.41,5.41,2.82,7.82,2.42,4.14,6.4,6.68,11.17,7.38,13.24-19.46,13.05-63.25,9.7-89.98-1.7-13.55-8.19-21.92-8.19-21.92Z"/><path class="f" d="M93.6,40.39c.74,.78,1.72,1.28,2.65,1.83,2.11,1.24,4.02,2.78,6,4.22,.94,.68,1.9,1.35,2.95,1.85,.83,.39,1.7,.68,2.57,.96,1.51,.49,3.04,.99,4.61,1.26,1.03,.18,2.08,.25,3.11,.38,2.95,.37,5.83,1.18,8.76,1.69,.29,.05,.59,.1,.87,0,.67-.21,.87-1.14,.56-1.77s-.95-1.03-1.56-1.39l-3.29-1.97c-3.11-1.86-6.22-3.72-9.49-5.29-1.97-.94-4.02-1.78-6.18-2.08-3.91-.55-7.94,.69-11.8-.12"/><ellipse class="d" cx="141.68" cy="55.12" rx="2.06" ry="5.37" transform="translate(32.26 160.67) rotate(-65.23)"/><ellipse class="d" cx="89.87" cy="34.18" rx="1.48" ry="3.86" transform="translate(21.19 101.46) rotate(-65.23)"/><ellipse class="q" cx="134.66" cy="43.79" rx="3.41" ry="2.12" transform="translate(16.85 122.35) rotate(-51.71)"/><ellipse class="q" cx="99.27" cy="31.15" rx="2.99" ry="1.86" transform="translate(13.32 89.77) rotate(-51.71)"/><path class="q" d="M137.9,57.03s-1.62-.47-4.19-2.11c-1.13-.72-2.48-1.69-4.2-2.91-2.5-1.78-5.92-4.22-10.72-7.37-10.8-7.08-18.64-6.48-24.36-6.04-2.94,.22-5.26,.4-7.28-.41-.58-.23-1.23,.05-1.46,.62-.23,.57,.05,1.22,.62,1.45,1.78,.71,3.65,.81,5.7,.73,.07,.23,.2,.44,.44,.61,2.58,1.84,5.12,3.77,7.78,5.52,2.55,1.68,5.39,2.82,8.33,3.67,6.17,1.78,12.65,2.72,19.07,2.9,.12,0,.21-.03,.31-.05l.28,.2c1.74,1.24,3.11,2.22,4.29,2.97,2.9,1.85,4.73,2.36,4.8,2.38,.1,.03,.2,.04,.3,.04,.49,0,.94-.32,1.08-.81,.16-.59-.18-1.2-.78-1.37Zm-28.76-8.4c-2.84-.82-5.53-1.94-8-3.58-2.05-1.37-4.04-2.82-6.04-4.27,5.62-.43,12.59-.75,22.45,5.72,2.81,1.84,5.14,3.44,7.09,4.81-5.24-.34-10.47-1.22-15.51-2.67Z"/><path class="p" d="M45.22,47.64c-.54,1.44-.89,1.69-2.41,1.69-.74,0-1.48-.01-2.21-.1-1.4-.17-2.01-.85-2.12-2.26-.02-.26-.03-.53-.04-.79-.04-1.05,.59-1.73,1.65-1.73,1.18,0,2.37,.12,3.54,.06,1.74-.09,2.22,1.42,1.81,2.55-.07,.19-.15,.38-.22,.58Z"/><g><path class="h" d="M121.74,115.66c.53-1.15,.64-2.52,.09-3.91h0l-.08,3.91Z"/><polygon class="h" points="74.82 58.82 73.94 99.5 86.78 105.33 88.05 46.23 74.82 58.82"/><polygon class="h" points="93.09 41.44 91.21 43.23 89.83 106.72 102.67 112.55 103.65 67.27 93.09 41.44"/><path class="h" d="M106.58,74.44l-.85,39.49,9.35,4.24c1.21,.54,2.43,.56,3.52,.23l.3-13.84-12.31-30.12Z"/><polygon class="h" points="45.58 86.63 54.99 90.9 55.28 77.4 45.58 86.63"/><polygon class="h" points="58.44 74.4 58.05 92.29 70.88 98.11 71.67 61.81 58.44 74.4"/><polygon class="i" points="55.28 77.4 54.99 90.9 58.05 92.29 58.44 74.4 55.28 77.4"/><polygon class="i" points="71.67 61.81 70.88 98.11 73.94 99.5 74.82 58.82 71.67 61.81"/><polygon class="i" points="88.05 46.23 86.78 105.33 89.83 106.72 91.21 43.23 88.05 46.23"/><polygon class="i" points="103.65 67.27 102.67 112.55 105.73 113.93 106.58 74.44 103.65 67.27"/><path class="i" d="M118.89,104.56l-.3,13.84c1.39-.43,2.54-1.44,3.15-2.75l.08-3.92-2.93-7.17Z"/><ellipse class="i" cx="68.58" cy="63.23" rx="32.96" ry="10.99" transform="translate(-24.69 64.63) rotate(-43.54)"/></g><path class="o" d="M136.63,75.81s-35.23,2.55-36.47,14.52c-2.03,19.52,42.94,15.13,42.94,15.13"/><ellipse class="o" cx="69.59" cy="98.77" rx="10.55" ry="13.17" transform="translate(-50.6 111.19) rotate(-60.73)"/><path class="e" d="M67.74,30.63c2.78,2.49,5.19,5.15,4.17,9.33-.06,.26-.07,.54-.09,.81-.05,.75,.28,1.17,1.02,1.47,1.41,.57,2.76,1.27,3.52,2.71,.53,1.01,.71,2.07,.48,3.18-.19,.94-.97,1.51-1.91,1.48-.89-.03-1.87-.72-1.84-1.57,.06-1.42-.9-1.88-1.9-2.23-2.13-.73-3.68-3.23-3.29-5.57,.08-.51,.12-1.03,.2-1.55,.15-1.05-.03-2.01-.7-2.87-.73-.93-1.31-1.96-2.25-2.72-.62-.5-.54-1.2-.32-1.82,.22-.64,.79-.97,1.47-1.03,.51-.04,.99,.09,1.43,.38Z"/><path class="n" d="M29.22,67.69c1.76,1.93,3.84,3.66,6.49,3.73,2.34,.06,3.52,1.08,4.82,2.82,2.95,3.94,7.74,4.54,11.44,1.76,.64-.48,1.08-1.08,1.17-1.87,.1-.89-.31-1.54-1.16-1.88-.77-.31-1.36,.02-1.72,.67-.49,.9-1.39,.99-2.09,1.24-1.97,.36-4.21-.76-5.41-2.6-.41-.62-.38-.95,.32-1.41,2.46-1.6,4.19-3.82,4.95-6.66,.58-2.18-.64-4.05-2.86-4.61-2.84-.73-6.12,.98-7.1,3.72-.49,1.37-.63,2.78-.51,4.23,.11,1.25-.04,1.39-1.32,1.2-1.85-.28-3.18-1.38-4.41-2.69-.82-.88-1.94-.93-2.67-.24-.67,.64-.71,1.78,.04,2.6Zm14.19-5.35c.34-.03,.78-.26,1.08,.13,.3,.39,0,.77-.17,1.1-.63,1.16-1.34,2.25-2.37,3.11-.27,.23-.58,.53-.84-.02-.72-1.5,.6-4,2.31-4.32Z"/></g></g></g></svg>